<?xml version="1.0" encoding="utf-8"?><svg viewBox="0 0 800 800" xmlns="http://www.w3.org/2000/svg" xmlns:xlink="http://www.w3.org/1999/xlink"><style>:root>svg{display:none}:root>svg:target{display:block}</style><svg viewBox="0 0 366.34 366.34" id="avatar_(1)" data-name="Layer 1" xmlns="http://www.w3.org/2000/svg"><defs><linearGradient id="aalinear-gradient" x1="69.93" y1="285.33" x2="296.41" y2="285.33" gradientUnits="userSpaceOnUse"><stop offset="0" stop-color="#16243f"/><stop offset="1" stop-color="#6878b1"/></linearGradient><style>.aacls-1{fill:#f2a196}.aacls-3{fill:#e88870}.aacls-4{fill:#f2d4cf}.aacls-5{fill:none;stroke:#00214e;stroke-miterlimit:10}.aacls-7{fill:#00214e}</style></defs><path class="aacls-1" d="M296.41 280.68a184.56 184.56 0 0 1-226.48-1l48.66-22.81a46.83 46.83 0 0 0 6.65-3.82c.64-.44 1.28-.9 1.89-1.38a46.35 46.35 0 0 0 12.78-15.09 44.69 44.69 0 0 0 4.64-14.48 67.91 67.91 0 0 0 .74-9.91c0-5.72-.31-11.44-.37-17.17q-.06-4.75-.1-9.51l2 1 5.2 2.69 2.41.41 27.88 4.74 31.12 5.3.94 32 .31 10.46.15 5.08v.33l12.1 4.92Z"/><path d="M296.41 280.68a184.56 184.56 0 0 1-226.48-1l48.66-22.81a46.83 46.83 0 0 0 6.65-3.82c.64-.44 1.28-.9 1.89-1.38 23.55 16.76 55.69 27.33 83.49 14.82 6.62-3 12.7-7.84 16.3-14.06Z" style="fill:url(#aalinear-gradient)"/><path class="aacls-3" d="M214.81 247.17c-10.45.63-22.13-2.07-33-8.34-20.41-11.79-31.32-32.35-27.4-49.21l27.88 4.74 31.12 5.3.94 32Z"/><path class="aacls-4" d="M267.76 84.35a41.22 41.22 0 0 1 4 17c.22 21.18-12.15 41.65-26 56.84l-.3.33c-10.59 11.12-27.31 13.72-41.23 18.47-5 1.72-59.22 17.12-59.22 20.48 0-.73-5.31-6-12-12.41a79.85 79.85 0 0 1-23.47-43.28c-2.54-14-.41-31.17 3.69-44.69 7.38-24.34 28-40.11 52.06-46.21C188.46 45 218.4 46 240.07 57c11.61 5.83 22.19 15.51 27.69 27.35Z"/><circle class="aacls-1" cx="134.98" cy="157.5" r="17"/><circle class="aacls-3" cx="140.38" cy="157.5" r="15.22"/><path class="aacls-1" d="m140.6 141.45 2.32 30.18 1.51 19.73c.56 7.26 3.4 11.61 8.12 17.42a85 85 0 0 0 31.26 23.92c11.6 5.17 27.68 10.32 40.06 5.3 12.65-5.13 16.69-19.33 20.95-31.11s8.2-24.73 8-37.45c-.27-17.26-4.84-26.94-4.84-26.94l3.33-19.94c1.25-7.51 2.86-15.35 1-22.9-2.13-8.66-8.67-12.35-14.05-18.82-14.16 18.24-37.44 28.55-57.77 39-10.49 5.44-39.89 21.61-39.89 21.61Z"/><path class="aacls-5" d="M215.13 141.31c-.08.34 13.36 38.47 13.36 38.47l-17.94.87M169.11 134.75a80.58 80.58 0 0 1 28.13-.8M231.7 133.8a55 55 0 0 1 17.45-1.21M177.94 194.63a39.7 39.7 0 0 1 15.24-14.42M195.85 150a11.6 11.6 0 0 1-5.18 8.32 12.14 12.14 0 0 1-1.85 1 24 24 0 0 1-6.41 1.37"/><path class="aacls-4" d="M263.18 124.12c1.25-11.35.56-23.22-4.36-33.52A37.48 37.48 0 0 0 245.09 75c-4.23-2.63-13.67-7.11-18.3-3.2-9.52 8 10.1 29.35 15.1 34.75a102.93 102.93 0 0 0 21.29 17.57Z"/><path class="aacls-5" d="M197.21 117.56h31.6M193.18 124.09h31.61M228.67 147.67a34.8 34.8 0 0 0 3.74 7.22 10.09 10.09 0 0 0 6.24 4"/><path d="M190 191.15a1.85 1.85 0 0 1 2.68-.5c2.08 1.46 5.88 4.56 11.28 5.63 7.36 1.47 13.75-1.48 15.27.42.86 1.07-.19 2.37-2.2 4.05a19.78 19.78 0 0 1-14.86 3.69c-7.08-1.33-12.39-9.53-12.39-12.44a1.65 1.65 0 0 1 .22-.85Z" style="fill:#fff"/><path class="aacls-7" d="M185.65 143.77c6.1-.07 6.28 9.26.18 9.42h-.27c-6.11.07-6.29-9.26-.19-9.42h.28ZM235.89 142.13c5.66-.06 5.83 8.59.17 8.75h-.26c-5.66.07-5.83-8.58-.17-8.74h.26Z"/></svg><svg viewBox="0 0 366.34 366.34" id="avatar_(10)" data-name="Layer 1" xmlns="http://www.w3.org/2000/svg"><defs><linearGradient id="ablinear-gradient" x1="140.91" y1="159.12" x2="288.5" y2="36.28" gradientUnits="userSpaceOnUse"><stop offset="0" stop-color="#16243f"/><stop offset="1" stop-color="#6878b1"/></linearGradient><linearGradient id="ablinear-gradient-2" x1="228.69" y1="124.59" x2="298.39" y2="124.59" xlink:href="#ablinear-gradient"/><style>.abcls-1{fill:#e18477}.abcls-2{fill:#a76962}.abcls-5,.abcls-7{fill:none;stroke-miterlimit:10}.abcls-5{stroke:#00214e}.abcls-6{fill:#00214e}.abcls-7{stroke:#fff}</style></defs><path class="abcls-1" d="M294.43 285.76a184.56 184.56 0 0 1-226.48-1l48.66-22.81a46.83 46.83 0 0 0 6.65-3.82c.64-.44 1.28-.9 1.89-1.38a46.35 46.35 0 0 0 12.78-15.09 44.69 44.69 0 0 0 4.64-14.48 67.91 67.91 0 0 0 .74-9.91c0-5.72-.31-11.44-.37-17.17q-.06-4.76-.1-9.51l2 1 5.2 2.69 2.41.41 27.88 4.74 31.12 5.3.94 32 .31 10.46.15 5.08v.33l12.1 4.92Z"/><path class="abcls-2" d="M212.81 251.37a16 16 0 0 1-10.07-1.56L143.07 201c-.07-2.26-.13.11-.16-2.15q-.06-4.75-.1-9.51l2 1 5.2 2.69 2.41.41 27.88 4.74 31.12 5.3.94 32 .31 10.46.15 5.08v.33Z"/><path d="M257.43 89.23a90.48 90.48 0 0 1 38.48 42.88 80.12 80.12 0 0 0-19.49 4.06h-.06q-2.46.84-4.88 1.85l-1 .43-1.59.7c-.53.23-1.06.48-1.58.74s-1 .51-1.57.78-1 .53-1.55.81-.91.49-1.36.75c-1.08.6-2.14 1.23-3.18 1.88q-.62.38-1.23.78a78.68 78.68 0 0 0-11.25 8.83c-4.39 4.15-8.49 8.92-13 13.18a46.31 46.31 0 0 1-13.38 9.39c-9.64 4.15-20.79 6.55-30.8 10l-47 16.25c0-.74-5.32-6-12-12.41a91.07 91.07 0 0 1-28.3-64c-1.62-73.26 84.44-94.8 143-79.1a91.21 91.21 0 0 1 26.21 11.74A76 76 0 0 1 286.44 71a63.12 63.12 0 0 1 11.95 18.5l-.79-.14a112.73 112.73 0 0 0-40.17-.13Z" style="fill:url(#ablinear-gradient)"/><path d="M295.91 132.11a80.12 80.12 0 0 0-19.49 4.06h-.06a47.36 47.36 0 0 0-4.88 1.85l-1 .43-1.61.72c-.53.24-1.05.48-1.58.74s-1 .51-1.57.78-1 .53-1.55.81-.91.49-1.36.75c-1.08.6-2.14 1.23-3.18 1.88l-1.23.78a78.68 78.68 0 0 0-11.25 8.83c-4.39 4.15-8.49 8.92-13 13.18-1.46.6-2.91 1.23-4.36 1.86.18-.08-1.15-17-1.11-18.71a110.5 110.5 0 0 1 2.23-19.44c2.54-12.31.92-23.76 3.37-36.38a80.44 80.44 0 0 1 2-8.35c4.18-3.12 10-4.08 15.07-4.81 12.15-1.75 24.65-.09 36.34 3.59a57.24 57.24 0 0 1 5.69 2.14c.88.39 1.74.81 2.59 1.26a12.24 12.24 0 0 0 2.42 1.42 117.17 117.17 0 0 0-41-.27 90.48 90.48 0 0 1 38.52 42.88Z" style="fill:url(#ablinear-gradient-2)"/><circle class="abcls-1" cx="133" cy="162.58" r="17"/><circle class="abcls-2" cx="138.39" cy="162.58" r="15.22"/><path class="abcls-1" d="m138.62 146.54 4.38 57 66.44 38.82a19.77 19.77 0 0 0 24.68-9.86c9.56-19.58 24.9-50.49 22.88-62-3-17-11-23-11-23q1.67-10 3.32-19.94c1.26-7.51 2.86-15.35 1-22.9-2.13-8.65-8.67-12.35-14.05-18.82-14.16 18.24-37.44 28.55-57.77 39-10.5 5.52-39.88 21.7-39.88 21.7Z"/><path class="abcls-5" d="M170.67 134.75a80.57 80.57 0 0 1 28.13-.75M229.72 134.86a55.64 55.64 0 0 1 17.45-1.21M206.69 173.34a3.4 3.4 0 0 0 2.11 6.38M224.74 163s.29 5.65 1.62 8.3c.57 1.14 1.46 2.1 2 3.24 2.21 4.33-1.36 5.25-4.81 5.25"/><path class="abcls-6" d="M294.43 285.76a184.56 184.56 0 0 1-226.48-1l48.66-22.81a46.83 46.83 0 0 0 6.65-3.82c.64-.44 1.28-.9 1.89-1.38a46.35 46.35 0 0 0 12.78-15.09 44.69 44.69 0 0 0 4.64-14.48 28.66 28.66 0 0 0 2.22 1.94 95.14 95.14 0 0 0 19.82 11.26 99 99 0 0 0 10.46 3.69 93.52 93.52 0 0 0 33 3.49c1.54-.12 3.09-.27 4.63-.38l.15 5.08v.33l12.1 4.92Z"/><circle class="abcls-7" cx="191.59" cy="149.75" r="19"/><circle class="abcls-7" cx="244.73" cy="146.75" r="19"/><path class="abcls-7" d="m210.59 149.75 15.14-1.3"/><path d="M190.17 191.23a1.87 1.87 0 0 1 2.69-.5c2.07 1.46 5.88 4.56 11.28 5.63 7.36 1.47 13.74-1.48 15.27.42.86 1.07-.19 2.38-2.2 4.05a19.75 19.75 0 0 1-14.86 3.69c-7.08-1.33-12.4-9.53-12.4-12.44a1.79 1.79 0 0 1 .22-.85Z" style="fill:#fff"/><ellipse class="abcls-6" cx="187.13" cy="149.58" rx="3.27" ry="7.94" transform="rotate(-85.77 187.119 149.584)"/><ellipse class="abcls-6" cx="238.63" cy="147.94" rx="7.94" ry="3.27" transform="rotate(-8.86 238.699 147.956)"/></svg><svg viewBox="0 0 366.34 366.34" id="avatar_(11)" data-name="Layer 1" xmlns="http://www.w3.org/2000/svg"><defs><linearGradient id="aclinear-gradient" x1="141.11" y1="152.44" x2="296.66" y2="22.97" gradientUnits="userSpaceOnUse"><stop offset="0" stop-color="#315676"/><stop offset="1" stop-color="#e1b9e0"/></linearGradient><linearGradient id="aclinear-gradient-2" x1="235.68" y1="3.82" x2="284.26" y2="264.56" xlink:href="#aclinear-gradient"/><style>.accls-1{fill:#f2d4cf}.accls-2{fill:#daaea8}.accls-5{fill:none;stroke:#00214e;stroke-miterlimit:10}.accls-6{fill:#00214e}</style></defs><path class="accls-1" d="M296.41 283.6a184.56 184.56 0 0 1-226.48-1l48.66-22.81a46.83 46.83 0 0 0 6.65-3.82c.64-.44 1.28-.9 1.89-1.38a46.35 46.35 0 0 0 12.78-15.09 44.69 44.69 0 0 0 4.64-14.5 67.91 67.91 0 0 0 .74-9.91c0-5.72-.31-11.44-.37-17.17q-.06-4.76-.1-9.51l2 1 5.2 2.69 2.41.41 27.88 4.74 31.12 5.3.94 32 .31 10.46.15 5.08v.33l12.1 4.92Z"/><path class="accls-2" d="M214.83 248.1a16 16 0 0 1-10.07-1.56l-59.67-48.78c-.07-2.26-.13.11-.16-2.15q-.06-4.76-.1-9.51l2 1 5.2 2.69 2.41.41 27.86 4.8 31.12 5.3.94 32 .31 10.46.15 5.08v.33Z"/><path d="m282 44.42-.27.11-3.06 58.12a78.13 78.13 0 0 1-50.17 68.9L145 200.42c0-.73-5.31-6-12-12.41a91.08 91.08 0 0 1-28.29-64c-.94-42.31 32-78.28 74.34-79.57h2.41Z" style="fill:url(#aclinear-gradient)"/><path d="m281.71 44.53-.53 52.25a80.53 80.53 0 0 1-52.7 74.77v-68.63s24.79-58.11 53.23-58.39Z" style="fill:url(#aclinear-gradient-2)"/><circle class="accls-1" cx="134.98" cy="160.42" r="17"/><circle class="accls-2" cx="140.38" cy="160.42" r="15.22"/><path class="accls-1" d="m140.6 144.38 4.38 57 66.44 38.82a19.77 19.77 0 0 0 24.68-9.86c9.56-19.58 24.9-50.5 22.88-62-3-17-11-23-11-23l3.33-19.94c1.25-7.51 2.86-15.35 1-22.9-2.13-8.66-8.67-12.35-14.05-18.82-14.16 18.24-37.44 28.55-57.77 39-10.49 5.52-39.89 21.7-39.89 21.7Z"/><path class="accls-5" d="M172.65 132.59a80.57 80.57 0 0 1 28.13-.79M231.7 132.7a55 55 0 0 1 17.45-1.21M208.67 171.18a3.4 3.4 0 0 0 2.11 6.38"/><ellipse class="accls-6" cx="186.71" cy="146.86" rx="3.27" ry="7.94" transform="rotate(-85.77 186.701 146.86)"/><ellipse class="accls-6" cx="238.79" cy="146.14" rx="7.94" ry="3.27" transform="rotate(-7.27 238.772 146.11)"/><path class="accls-5" d="M226.73 160.83s.29 5.65 1.61 8.3c.57 1.14 1.46 2.1 2 3.24 2.22 4.33-1.36 5.24-4.81 5.24"/><path class="accls-6" d="M296.41 283.6a184.56 184.56 0 0 1-226.48-1l48.66-22.81a46.83 46.83 0 0 0 6.65-3.82c.64-.44 1.28-.9 1.89-1.38a46.35 46.35 0 0 0 12.78-15.09 44.69 44.69 0 0 0 4.64-14.5 28.66 28.66 0 0 0 2.22 1.94 95.14 95.14 0 0 0 19.82 11.26 99 99 0 0 0 10.46 3.69 93.52 93.52 0 0 0 33 3.49c1.54-.12 3.09-.27 4.63-.38l.15 5.08v.33l12.1 4.92Z"/><path d="M192.16 189.07a1.85 1.85 0 0 1 2.68-.5c2.08 1.46 5.88 4.56 11.28 5.63 7.36 1.47 13.74-1.48 15.27.42.86 1.07-.19 2.37-2.2 4a19.74 19.74 0 0 1-14.86 3.69c-7.08-1.33-12.4-9.53-12.4-12.44a1.68 1.68 0 0 1 .23-.8Z" style="fill:#fff"/></svg><svg viewBox="0 0 366.34 366.34" id="avatar_(12)" data-name="Layer 1" xmlns="http://www.w3.org/2000/svg"><defs><linearGradient id="adlinear-gradient" x1="-1177.82" y1="131.56" x2="-1082.82" y2="131.56" gradientTransform="rotate(13.12 -226.444 5651.763)" gradientUnits="userSpaceOnUse"><stop offset="0" stop-color="#16243f"/><stop offset="1" stop-color="#6878b1"/></linearGradient><linearGradient id="adlinear-gradient-2" x1="98.71" y1="168.67" x2="260.69" y2="168.67" xlink:href="#adlinear-gradient"/><linearGradient id="adlinear-gradient-3" x1="58.45" y1="339.99" x2="265.95" y2="282.46" gradientUnits="userSpaceOnUse"><stop offset="0" stop-color="#315676"/><stop offset="1" stop-color="#e1b9e0"/></linearGradient><linearGradient id="adlinear-gradient-4" x1="111.94" y1="98.26" x2="210.94" y2="139.54" xlink:href="#adlinear-gradient"/><style>.adcls-3{fill:#845161}.adcls-4{fill:#69303a}.adcls-6,.adcls-8{fill:none;stroke-miterlimit:10}.adcls-6{stroke:#fff}.adcls-8{stroke:#00214e}.adcls-9{fill:#00214e}</style></defs><path d="M192.58 81.19c-1.37 5.88-9.2 8.78-12.51 13.39-3.43 4.79-3.74 13.1-8.66 16.16s-12.52-.34-18.32.62c-5.61.93-11.68 6.68-17.55 5.31s-8.78-9.21-13.39-12.52c-4.79-3.43-13.1-3.74-16.16-8.66s.34-12.51-.62-18.32c-.93-5.61-6.68-11.67-5.31-17.55s9.21-8.78 12.52-13.39c3.43-4.79 3.74-13.1 8.66-16.16s12.51.34 18.32-.62c5.61-.93 11.67-6.67 17.55-5.3s8.78 9.2 13.39 12.51c4.79 3.43 13.1 3.74 16.16 8.66s-.34 12.52.62 18.33c.93 5.6 6.72 11.67 5.3 17.54Z" style="fill:url(#adlinear-gradient)"/><path d="M210.4 216c-2.52 3-4.7 6.28-7.26 9.23-13.62 15.66-43.3 5.37-58.06-4-10.83-6.85-19-17.18-26-27.94-8.6-13.27-15.79-27.7-18.9-43.2C85.93 79.1 177 48.22 228.07 83.07c19 13 36.18 42.16 32 65.53-2.13 11.86-10.57 22.53-9.67 34.54 1 12.94 12.7 25.27 7.8 37.29-1.92 4.7-6.05 8.06-9.41 11.87-4.53 5.15-7.83 11.59-8.23 18.43s2.45 14 8.1 17.92c-13.93-1.86-22.52-18.54-18.91-32.12 1.18-4.46 3.35-8.62 4.3-13.14s.4-9.77-3.05-12.83c-4.43-3.93-11.65-2.44-16.31 1.22a30.41 30.41 0 0 0-4.29 4.22Z" style="fill:url(#adlinear-gradient-2)"/><path class="adcls-3" d="M296.41 304.08a184.56 184.56 0 0 1-226.48-1l48.66-22.81a47.68 47.68 0 0 0 4.35-2.34l1.12-.7c.4-.25.79-.51 1.18-.78A46.54 46.54 0 0 0 139.91 260c4-7.55 5.32-15.89 5.38-24.39 0-5.72-.31-11.44-.37-17.17q-.06-4.75-.1-9.51l.2.1 1.78.92 5.2 2.69 30.29 5.15 31.12 5.3.72 24.47.22 7.5.47 15.87 11.47 4.67 9 3.64Z"/><path class="adcls-4" d="M214.13 247.53a12 12 0 0 1-7.22 2c-14.79-1.59-43.64-13.18-61.8-34.63q0-1.58-.06-3.15v-2.79l1.78.92 5.2 2.69 30.29 5.15 31.12 5.3Z"/><path d="M296.41 304.09a184.56 184.56 0 0 1-226.48-1l48.66-22.81a49.22 49.22 0 0 0 4.36-2.34c23.67 17.41 56.63 28.75 85.05 16 8.06-3.62 15.33-10.05 18.29-18.31l9 3.64Z" style="fill:url(#adlinear-gradient-3)"/><circle class="adcls-3" cx="119.82" cy="176.91" r="17"/><circle class="adcls-4" cx="125.82" cy="174.91" r="17"/><path class="adcls-3" d="M235.36 151.16c11.74 40.69-13.2 89.84-28.54 89.84-21 0-72-16.77-83.73-57.46S127 102.65 158 93.7s65.62 16.78 77.36 57.46Z"/><ellipse class="adcls-6" cx="170.38" cy="164.41" rx="19" ry="11.84"/><ellipse class="adcls-6" cx="225.18" cy="161.85" rx="19" ry="11.84"/><path d="M200.54 101.22c-2.4 4.74-7.4 8.86-10.37 13.71-3.89 6.35-6.83 13.25-10.13 19.92-2.45 5-5.18 9.94-9.33 13.61s-10 5.84-15.31 4.31c-3.64-1.05-6.59-3.65-9.85-5.58s-7.43-3.22-10.77-1.42c-4.92 2.64-4.85 9.81-8.37 14.14-8.07 9.93-22.88-3.45-24.67-12.12-2.6-12.67 7.79-23.26 15.35-32 6.31-7.3 14.83-18.44 24.73-20.87.18 0 58-23 58-23 .52 7.73 3.64 19.16 1.78 26.56a13 13 0 0 1-1.06 2.74Z" style="fill:url(#adlinear-gradient-4)"/><path class="adcls-8" d="M198.4 153.06c-.05.24 5.54 15.88 8.93 25.32a5.26 5.26 0 0 1-4.94 7h-3.64M209.86 142.85a31.18 31.18 0 0 1 22.85-2.16M154.75 146.55a36.72 36.72 0 0 1 31.23-1"/><path class="adcls-6" d="m189.38 164.41 16.94-1.3"/><path class="adcls-9" d="M172.92 157.63c6.1 0 6.1 9.37 0 9.42h-.27c-6.11-.05-6.11-9.38 0-9.42h.27ZM223.18 154.54c5.66.05 5.66 8.7 0 8.75h-.25c-5.67 0-5.67-8.7 0-8.75h.25Z"/><path class="adcls-8" d="M191.3 179.65a3.38 3.38 0 0 0-3 3.15 2.65 2.65 0 0 0 3.24 2.5"/><path d="M173.65 194.77a1.86 1.86 0 0 1 2.68-.5c2.08 1.46 5.88 4.56 11.28 5.63 7.36 1.47 13.75-1.48 15.27.42.86 1.07-.19 2.37-2.2 4.05a19.74 19.74 0 0 1-14.86 3.69c-7.08-1.33-12.4-9.53-12.4-12.44a1.68 1.68 0 0 1 .23-.85Z" style="fill:#fff"/></svg><svg viewBox="0 0 366.34 366.34" id="avatar_(13)" data-name="Layer 1" xmlns="http://www.w3.org/2000/svg"><defs><style>.aecls-1{fill:#f2d4cf}.aecls-2{fill:#f2a196}.aecls-3{fill:#e88870}.aecls-4,.aecls-5{fill:none;stroke-miterlimit:10}.aecls-4{stroke:#fff}.aecls-5{stroke:#00214e}.aecls-6{fill:#00214e}</style></defs><path class="aecls-1" d="M204.73 256a388.83 388.83 0 0 1-55.49-9.31c-37-9.22-72.77-25.51-101-51.14 24.9-26 38.47-41.05 58-71.26 14.49-22.42 32.29-61.84 59.13-72 42.07-15.93 98.88-.45 110.84 46.87 5.05 20 5.24 40.92 2.38 61.26-1.3 9.17-10.58 98.69-15.9 98.6-19.33-.34-38.69-1.13-57.96-3.02Z"/><path class="aecls-2" d="M318.09 281.81a184.56 184.56 0 0 1-226.48-1L140.27 258a47.68 47.68 0 0 0 4.35-2.34l1.12-.7c.4-.25.79-.51 1.18-.78a46.54 46.54 0 0 0 14.67-16.47c4-7.55 5.32-15.89 5.38-24.39 0-5.72-.31-11.44-.37-17.17q-.06-4.75-.1-9.51l2 1 5.2 2.69 30.3 5.16 31.12 5.3.94 32 .47 15.87L248 253.3l9 3.64Z"/><path class="aecls-3" d="M235.91 227.67c-2.72 1.68-5.29 2.47-7.54 2.23-14.79-1.59-43.64-13.18-61.8-34.63q0-1.58-.06-3.15-.06-4.76-.1-9.51l2 1 5.2 2.69 30.29 5.15 31.12 5.3Z"/><circle class="aecls-2" cx="141.5" cy="154.63" r="17"/><circle class="aecls-3" cx="147.5" cy="152.63" r="17"/><path class="aecls-2" d="M257 128.88c11.74 40.69-13.21 89.87-28.54 89.87-21 0-72-16.77-83.74-57.46s3.87-80.92 34.87-89.87 65.7 16.78 77.41 57.46Z"/><circle class="aecls-4" cx="193.86" cy="142.13" r="19"/><circle class="aecls-4" cx="247" cy="139.13" r="19"/><path class="aecls-1" d="M218.33 74.8c-4.3 18.7-13.69 34.58-30.86 46.14-18.52 12.83-39.8 14.63-61.13 18.86.54-13.11.83-27.15 7.6-38.85a79.46 79.46 0 0 1 32.31-30.35c14.8-7.66 37.71-15.16 54.35-9.85a112.5 112.5 0 0 1-2.27 14.05Z"/><path class="aecls-5" d="M220.08 130.78c-.08.35 7.92 32.35 7.92 32.35h-12.5M231.53 120.57a31.21 31.21 0 0 1 22.86-2.16M176.42 124.27a36.76 36.76 0 0 1 31.23-1"/><path class="aecls-4" d="m212.86 142.13 15.14-1.29"/><path class="aecls-6" d="M318.09 281.81a184.56 184.56 0 0 1-226.48-1L140.27 258a46.83 46.83 0 0 0 6.65-3.82c.64-.44 1.28-.9 1.89-1.38a46.35 46.35 0 0 0 12.78-15.09 44.69 44.69 0 0 0 4.64-14.48 28.66 28.66 0 0 0 2.22 1.94 95.14 95.14 0 0 0 19.82 11.26 99 99 0 0 0 10.46 3.69 93.52 93.52 0 0 0 33 3.49c1.54-.12 3.09-.27 4.63-.38l.15 5.08v.33l12.1 4.92Z"/><path d="M194.09 174.42a1.85 1.85 0 0 1 2.68-.51c2.08 1.47 5.88 4.56 11.28 5.64 7.36 1.46 13.74-1.48 15.27.42.86 1.07-.19 2.37-2.2 4.05a19.74 19.74 0 0 1-14.86 3.68c-7.08-1.32-12.4-9.53-12.4-12.43a1.66 1.66 0 0 1 .23-.85Z" style="fill:#fff"/><path class="aecls-6" d="M194.82 135.78c6.1.05 6.1 9.38 0 9.43h-.28c-6.1-.05-6.1-9.38 0-9.43h.28ZM245.08 135.12c5.66 0 5.66 8.7 0 8.75h-.26c-5.66-.05-5.66-8.7 0-8.75h.26Z"/></svg><svg viewBox="0 0 366.34 366.34" id="avatar_(14)" data-name="Layer 1" xmlns="http://www.w3.org/2000/svg"><defs><style>.afcls-1{fill:#00214e}.afcls-2{fill:#845161}.afcls-3{fill:#69303a}.afcls-4{fill:none;stroke:#00214e;stroke-miterlimit:10}</style></defs><path class="afcls-1" d="M118.72 166.8c-1.57-3.12-3.09-6.28-4.55-9.45-2.86-6.2-5.54-12.55-6.74-19.27-3.89-21.68 7.32-45.32 23.41-59.22 22.9-19.77 55.34-27.24 80.57-44.78a34.59 34.59 0 0 1-12.9 21.76c11.81-9.1 47 5.89 58 11.51a116.3 116.3 0 0 1 44.94 40.08 73.87 73.87 0 0 0-37.51-4.8c9.88 9.57 20.16 19.78 23.9 33-17.73-12.78-46.04-6.63-56.84 12.42-6.93 12.2-6.83 27.06-11 40.47-4.4 14.2-16.27 23.22-30.23 27-10.52 2.88-31.22 4.18-40.75-2-2.89-1.87-5-4.73-6.94-7.55a318.87 318.87 0 0 1-23.36-39.17Z"/><circle class="afcls-2" cx="129.75" cy="170.77" r="17"/><circle class="afcls-3" cx="135.61" cy="169.77" r="16"/><path class="afcls-2" d="M291.34 294a184.56 184.56 0 0 1-226.48-1l48.66-22.81a46.83 46.83 0 0 0 6.65-3.82c.64-.44 1.28-.9 1.89-1.38a46.35 46.35 0 0 0 12.78-15.09c4-7.55 5.32-15.89 5.38-24.39 0-2.81-.06-5.63-.14-8.45s-.2-5.81-.23-8.72q-.06-4.75-.1-9.51l2 1 5.2 2.69 2.41.41 27.88 4.74 31.12 5.3.94 32 .39 13.29.07 2.25v.33l12.1 4.92Z"/><path class="afcls-3" d="m209.67 258.19-1.54.16a51.49 51.49 0 0 1-40.67-14.65l-27.38-33.34c-.09-2.9-.2.83-.23-2.08q-.06-4.75-.1-9.51l2 1 5.2 2.69 2.41.41 27.88 4.74 31.12 5.3.94 32Z"/><path class="afcls-2" d="M138.41 139.06a17.1 17.1 0 0 0-5.64 10.69c-2.09 19.53 5.14 42.58 7.15 62.14l36.42 26.86a51.48 51.48 0 0 0 42.29 8.94c5.87-1.39 9.59-2.29 12.24-7 5.12-9 17.69-39.79 18.51-61.51.23-6.17.08-15.57-3.72-20.82-1.85-2.55-2.8-2.61-2.13-6.21.69-3.76 1.68-7.48 2.51-11.21a52 52 0 0 0 1-16.45c-.55-5-.53-9.44-1.06-14.53-.26-2.47-1.36-13.28-1.36-13.28-6.35 9.56-17.81 14.58-28.41 17.88-14.42 4.48-29.43 6.67-44.05 10.43-9.69 2.53-25.36 6.13-33.75 14.07Z"/><path class="afcls-1" d="M181.62 154.13c6.1.05 6.1 9.38 0 9.43h-.27c-6.11-.05-6.11-9.38 0-9.43h.27ZM234.31 151.28c5.67 0 5.67 8.7 0 8.75h-.25c-5.66-.05-5.66-8.71 0-8.75h.25Z"/><path class="afcls-4" d="M186.09 199.08a29.76 29.76 0 0 0 18.54 9.69M167.42 142.94a80.34 80.34 0 0 1 28.13-.8M226.47 143a55.64 55.64 0 0 1 17.45-1.21"/><path d="M291.34 294a184.56 184.56 0 0 1-226.48-1l48.66-22.81a46.83 46.83 0 0 0 6.65-3.82c.64-.44 1.28-.9 1.89-1.38 23.55 16.76 55.69 27.33 83.49 14.82 6.62-3 12.7-7.84 16.3-14.06Z" style="fill:#ff2609"/><path class="afcls-4" d="M198.42 182.25a3.4 3.4 0 0 0 2.11 6.38M213.83 153.21c2.49 9.55 4.56 19 6.93 28.57a7 7 0 0 1 .3 2.72c-.43 2.75-3.7 3.88-6.42 4.47"/></svg><svg viewBox="0 0 366.34 366.34" id="avatar_(15)" data-name="Layer 1" xmlns="http://www.w3.org/2000/svg"><defs><style>.agcls-1{fill:#f2a196}.agcls-2{fill:#e88870}.agcls-6{fill:none;stroke:#00214e;stroke-miterlimit:10}.agcls-8{fill:#00214e}</style></defs><path class="agcls-1" d="M296.41 291.18a184.56 184.56 0 0 1-226.48-1l48.66-22.81a46.83 46.83 0 0 0 6.65-3.82c.64-.44 1.28-.9 1.89-1.38a46.35 46.35 0 0 0 12.78-15.09 44.69 44.69 0 0 0 4.64-14.48 67.91 67.91 0 0 0 .74-9.91c0-5.72-.31-11.44-.37-17.17q-.06-4.75-.1-9.51l2 1 5.2 2.69 2.41.41 27.88 4.74 31.12 5.3.94 32 .31 10.46.15 5.08v.31l12.1 4.92Z"/><path class="agcls-2" d="M214.71 255.63a16 16 0 0 1-10.07-1.56L145 205.29c-.07-2.26-.13.11-.16-2.15q-.06-4.75-.1-9.51l2 1 5.2 2.69 2.41.41 27.88 4.74 31.12 5.3.94 32 .31 10.46.15 5.08v.33Z"/><path d="M296.41 291.18a184.56 184.56 0 0 1-226.48-1l48.66-22.81a46.83 46.83 0 0 0 6.65-3.82c.64-.44 1.28-.9 1.89-1.38 23.55 16.76 55.69 27.33 83.49 14.82 6.62-3 12.7-7.84 16.3-14.06Z" style="fill:#ff2609"/><path d="M278.51 90.9c-.09.59-.2 1.17-.33 1.75a32.08 32.08 0 0 1-3.31 8.49l-.08.14c-.57 1-1.18 2-1.84 3a74.32 74.32 0 0 1-5.72 7.35L266 113c-.83.93-1.67 1.84-2.51 2.74a6.29 6.29 0 0 1 1.93-.11 4.21 4.21 0 0 1 .71.12c3.19.66 5.92 3.63 6.77 7 .05.22.1.45.14.67.79 4.48-1 9-3.21 13-3.87 7.08-9.45 11.79-14.36 17.94-3.68 4.58-5.72 10-9.73 14.38l-.3.33-.24.24c-10.6 10.92-27.17 13.51-41 18.23-5 1.72-59.22 17.12-59.22 20.48 0-.73-5.31-6-12-12.41-24-22.79-31.89-58-17.61-88.2 15.35-32.5 50.21-55.69 83.41-66.83 10.38-3.48 22.16-5.82 32-1s14.74 19.77 6.58 27.07a26.16 26.16 0 0 1 17.93-5.21 24.46 24.46 0 0 1 15.72 7.07 26.83 26.83 0 0 1 5.58 8.18 28.64 28.64 0 0 1 1.37 3.9 24.94 24.94 0 0 1 .55 10.31Z" style="fill:#f2d4cf"/><path d="M278.51 90.9c-.09.59-.2 1.17-.33 1.75a32.08 32.08 0 0 1-3.31 8.49l-.08.14c-.57 1-1.18 2-1.84 3a74.32 74.32 0 0 1-5.72 7.35L266 113c-.83.93-1.67 1.84-2.51 2.74a6.29 6.29 0 0 1 1.93-.11 4.21 4.21 0 0 1 .71.12c3.19.66 5.92 3.63 6.77 7 .05.22.1.45.14.67.79 4.48-1 9-3.21 13-3.87 7.08-9.45 11.79-14.36 17.94-3.68 4.58-5.72 10-9.73 14.38l-.3.33-.24.24a39.31 39.31 0 0 1-7.44-18.45c-1.71-13.84-.67-28.92-1.14-42.93-.16-4.89-.45-10.72 1.12-15.36a14.35 14.35 0 0 1 1.71-3.24 59.49 59.49 0 0 1 6.27-8.37 22 22 0 0 1 9.68-6 32.54 32.54 0 0 1 6.11-1.12 28.37 28.37 0 0 1 6.64.13 25 25 0 0 1 8.38 2.77 28.64 28.64 0 0 1 1.37 3.9 24.94 24.94 0 0 1 .61 10.26Z" style="fill:#daaea8"/><circle class="agcls-1" cx="134.98" cy="168" r="17"/><circle class="agcls-2" cx="140.38" cy="168" r="15.22"/><path class="agcls-1" d="m140.6 152 4.4 57 66.44 38.82A19.76 19.76 0 0 0 236.1 238c9.56-19.58 24.9-50.49 22.88-62-3-17-11-23-11-23l3.33-19.94c1.25-7.51 2.86-15.35 1-22.9-2.13-8.65-8.67-12.35-14.05-18.82-14.16 18.24-37.44 28.55-57.77 39C170 135.78 140.6 152 140.6 152Z"/><path class="agcls-6" d="M215.13 147.1c-.08.34 13.36 36.12 13.36 36.12l-17.94.88M172.65 140.17a80.57 80.57 0 0 1 28.13-.79M231.7 140.28a55.64 55.64 0 0 1 17.45-1.21"/><path d="M192.17 194.1a1.86 1.86 0 0 1 2.68-.5c2.08 1.46 5.88 4.56 11.28 5.63 7.36 1.47 13.74-1.48 15.27.42.86 1.07-.19 2.38-2.2 4a19.69 19.69 0 0 1-14.86 3.69c-7.08-1.33-12.4-9.53-12.4-12.44a1.68 1.68 0 0 1 .23-.8Z" style="fill:#fff"/><path class="agcls-8" d="M189.53 151.64c6.1.05 6.1 9.37 0 9.42h-.28c-6.1-.05-6.1-9.37 0-9.42h.28ZM239.79 151c5.66 0 5.66 8.7 0 8.74h-.25c-5.67 0-5.67-8.7 0-8.74h.25Z"/></svg><svg viewBox="0 0 366.34 366.34" id="avatar_(16)" data-name="Layer 1" xmlns="http://www.w3.org/2000/svg"><defs><linearGradient id="ahlinear-gradient" x1="69.46" y1="135.08" x2="265.13" y2="135.08" gradientUnits="userSpaceOnUse"><stop offset="0" stop-color="#315676"/><stop offset="1" stop-color="#e1b9e0"/></linearGradient><linearGradient id="ahlinear-gradient-2" x1="52.67" y1="156.37" x2="257.22" y2="40.38" gradientUnits="userSpaceOnUse"><stop offset="0" stop-color="#315676"/><stop offset=".08" stop-color="#375979"/><stop offset=".18" stop-color="#496383"/><stop offset=".2" stop-color="#4d6585"/><stop offset=".29" stop-color="#546989"/><stop offset=".43" stop-color="#677495"/><stop offset=".6" stop-color="#8786a9"/><stop offset=".78" stop-color="#b39fc4"/><stop offset=".95" stop-color="#e1b9e0"/></linearGradient><style>.ahcls-2{fill:#e18477}.ahcls-3{fill:#a76962}.ahcls-6{fill:none;stroke:#00214e;stroke-miterlimit:10}.ahcls-7{fill:#00214e}</style></defs><path d="M69.46 224.32s19-105.26 27.23-125.44c12.82-31.53 43.39-50.33 76.92-53 24.51-1.94 47.64 8.38 60.25 29.37 16.1 26.81 31.27 149.22 31.27 149.22Z" style="fill:url(#ahlinear-gradient)"/><path class="ahcls-2" d="M296.88 282.36a184.56 184.56 0 0 1-226.48-1l48.66-22.81a47.68 47.68 0 0 0 4.35-2.34l1.12-.7c.4-.25.79-.51 1.18-.78a46.54 46.54 0 0 0 14.67-16.47c4-7.55 5.32-15.89 5.38-24.39 0-5.72-.31-11.44-.37-17.17q-.06-4.75-.1-9.51l2 1 5.2 2.69 30.27 5.12 31.12 5.3.7 23.8.24 8.17.47 15.87 11.47 4.67 9 3.64Z"/><path class="ahcls-3" d="M214.58 225.14c-2.67 1.63-5.19 2.39-7.4 2.15-14.79-1.59-43.64-13.18-61.8-34.63q0-1.57-.06-3.15v-2.33l2 1 5.2 2.69 30.24 5.13 31.12 5.3Z"/><path d="M296.89 282.36a184.56 184.56 0 0 1-226.48-1l48.66-22.81a47.68 47.68 0 0 0 4.35-2.34c23.68 17.41 56.64 28.75 85.06 16 8.06-3.62 15.33-10.05 18.29-18.31l9 3.64Z" style="fill:#f2d4cf"/><circle class="ahcls-2" cx="118.62" cy="153.9" r="17"/><circle class="ahcls-3" cx="124.62" cy="151.9" r="17"/><path class="ahcls-2" d="M234.15 128.16C245.9 168.84 221 218 205.62 218c-21 0-72-16.78-83.74-57.46s3.87-80.92 34.87-89.87 65.66 16.8 77.4 57.49Z"/><path d="M199.29 78.62a32.79 32.79 0 0 1-1.66 5.56c-7.52 18.57-19.12 34.58-36 45.7-20 13.16-39.6 12.58-62 15.8 1.27-8.18 4.14-16 4.39-24.57.4-13.42 3.43-18.54 11.89-28.34 6.3-7.29 14.83-18.43 24.73-20.87.17 0 58-23 58-23 .64 9.99 2.6 20.22.65 29.72Z" style="fill:url(#ahlinear-gradient-2)"/><path class="ahcls-6" d="M207 121.54a31.13 31.13 0 0 1 22.85-2.15M154.53 124.44a36.75 36.75 0 0 1 31.23-1M204.21 148.5s.29 5.66 1.61 8.31c.58 1.14 1.46 2.1 2 3.23 2.22 4.34-1.36 5.25-4.81 5.25M190.28 158.38a3.4 3.4 0 0 0 2.11 6.38M174.38 177.51a29.78 29.78 0 0 0 18.54 9.69"/><ellipse class="ahcls-7" cx="171.02" cy="138.97" rx="3.27" ry="7.94" transform="rotate(-85.77 171.006 138.97)"/><ellipse class="ahcls-7" cx="222.52" cy="137.33" rx="7.94" ry="3.27" transform="rotate(-8.86 222.574 137.357)"/></svg><svg viewBox="0 0 366.34 366.34" id="avatar_(17)" data-name="Layer 1" xmlns="http://www.w3.org/2000/svg"><defs><linearGradient id="ailinear-gradient" x1="108.28" y1="122.42" x2="268.26" y2="122.42" gradientUnits="userSpaceOnUse"><stop offset="0" stop-color="#16243f"/><stop offset="1" stop-color="#6878b1"/></linearGradient><linearGradient id="ailinear-gradient-2" x1="219.28" y1="72.92" x2="269.19" y2="152.46" xlink:href="#ailinear-gradient"/><style>.aicls-1{fill:#de8276}.aicls-2{fill:#a76962}.aicls-6{fill:none;stroke:#00214e;stroke-miterlimit:10}.aicls-7{fill:#00214e}</style></defs><path class="aicls-1" d="M296.41 282a184.56 184.56 0 0 1-226.48-1l48.66-22.81a46.83 46.83 0 0 0 6.65-3.82c.64-.44 1.28-.9 1.89-1.38a46.35 46.35 0 0 0 12.78-15.09 44.69 44.69 0 0 0 4.64-14.48 67.91 67.91 0 0 0 .74-9.91c0-5.72-.31-11.44-.37-17.17q-.06-4.76-.1-9.51l2 1 5.2 2.69 2.41.41 27.88 4.74 31.12 5.3.94 32 .31 10.46.15 5.08v.33l12.1 4.92Z"/><path class="aicls-2" d="M214.63 246.85a16 16 0 0 1-10.07-1.56l-59.67-48.78c-.07-2.26-.13.11-.16-2.15q-.06-4.76-.1-9.51l2 1 5.2 2.69 2.41.41 27.88 4.74 31.12 5.3.94 32 .31 10.46.15 5.08v.33Z"/><path d="M245.43 159.9a35.93 35.93 0 0 1-5.09 4.41c-10.4 7.53-24.28 10-36.14 14.06-5 1.71-59.22 17.12-59.22 20.47 0-.73-5.31-6-12-12.4a79.91 79.91 0 0 1-19.56-85.74c10.91-28.67 45.69-48.43 74.82-53 13.87-2.17 30.33-3.38 43.14 3.27 6.55 3.41 12 8.38 17 13.89q2.34 2.61 4.54 5.33c.63.76 1.25 1.52 1.86 2.29 22.77 28.6 14.7 62.15-9.35 87.42Z" style="fill:url(#ailinear-gradient)"/><path d="M245.43 159.9a35.93 35.93 0 0 1-5.09 4.41 22.42 22.42 0 0 1-1.15-2.3c-2.64-6-4-12.51-5-19a275.93 275.93 0 0 1-3.19-28.52c-.91-15.34-7.46-22.95 5.57-34.91a43 43 0 0 1 16.35-9.38c.63.76 1.25 1.52 1.86 2.29 22.77 28.59 14.7 62.14-9.35 87.41Z" style="fill:url(#ailinear-gradient-2)"/><circle cx="134.98" cy="158.85" r="17" style="fill:#e18477"/><circle class="aicls-2" cx="140.38" cy="158.85" r="15.22"/><path class="aicls-1" d="M141.65 142.73c.83 10.86.8 24.12 1.09 28q1.13 14.59 2.24 29.17l66.44 38.81a19.76 19.76 0 0 0 24.68-9.85c9.56-19.58 24.9-50.5 22.88-62-3-17-11-23-11-23l3.33-19.94c3.37-20.27-3.58-39.46-27.26-41.68-5-.46-10.57.49-13.54 4.48-8 10.76-3.39 24-15.4 34-14.58 12.03-47.11 17.28-54.73 7.57 0 0 .7 6.87 1.27 14.44Z"/><path class="aicls-6" d="M191.51 185.15a29.78 29.78 0 0 0 18.54 9.69M215.13 137.94c-.08.35 13.36 36.13 13.36 36.13l-17.94.87M172.65 131a80.58 80.58 0 0 1 28.13-.8M231.7 131.13a55 55 0 0 1 17.45-1.21"/><path class="aicls-7" d="M296.41 282a184.56 184.56 0 0 1-226.48-1l48.66-22.81a46.83 46.83 0 0 0 6.65-3.82c.64-.44 1.28-.9 1.89-1.38a46.35 46.35 0 0 0 12.78-15.09 44.69 44.69 0 0 0 4.64-14.48 28.66 28.66 0 0 0 2.22 1.94 95.14 95.14 0 0 0 19.82 11.26 99 99 0 0 0 10.46 3.69 93.52 93.52 0 0 0 33 3.49c1.54-.12 3.09-.27 4.63-.38l.15 5.08v.33l12.1 4.92ZM186.28 142.24c6.1 0 6.1 9.38 0 9.43H186c-6.11 0-6.11-9.38 0-9.43h.27ZM236.41 140.85c5.66.05 5.66 8.7 0 8.75h-.26c-5.66 0-5.66-8.7 0-8.75h.26Z"/></svg><svg viewBox="0 0 366.34 366.34" id="avatar_(18)" data-name="Layer 1" xmlns="http://www.w3.org/2000/svg"><defs><linearGradient id="ajlinear-gradient" x1="108.28" y1="122.42" x2="268.26" y2="122.42" gradientUnits="userSpaceOnUse"><stop offset="0" stop-color="#16243f"/><stop offset="1" stop-color="#6878b1"/></linearGradient><linearGradient id="ajlinear-gradient-2" x1="219.28" y1="72.92" x2="269.19" y2="152.46" xlink:href="#ajlinear-gradient"/><style>.ajcls-1{fill:#de8276}.ajcls-2{fill:#a76962}.ajcls-6{fill:none;stroke:#00214e;stroke-miterlimit:10}.ajcls-7{fill:#00214e}</style></defs><path class="ajcls-1" d="M296.41 282a184.56 184.56 0 0 1-226.48-1l48.66-22.81a46.83 46.83 0 0 0 6.65-3.82c.64-.44 1.28-.9 1.89-1.38a46.35 46.35 0 0 0 12.78-15.09 44.69 44.69 0 0 0 4.64-14.48 67.91 67.91 0 0 0 .74-9.91c0-5.72-.31-11.44-.37-17.17q-.06-4.76-.1-9.51l2 1 5.2 2.69 2.41.41 27.88 4.74 31.12 5.3.94 32 .31 10.46.15 5.08v.33l12.1 4.92Z"/><path class="ajcls-2" d="M214.63 246.85a16 16 0 0 1-10.07-1.56l-59.67-48.78c-.07-2.26-.13.11-.16-2.15q-.06-4.76-.1-9.51l2 1 5.2 2.69 2.41.41 27.88 4.74 31.12 5.3.94 32 .31 10.46.15 5.08v.33Z"/><path d="M245.43 159.9a35.93 35.93 0 0 1-5.09 4.41c-10.4 7.53-24.28 10-36.14 14.06-5 1.71-59.22 17.12-59.22 20.47 0-.73-5.31-6-12-12.4a79.91 79.91 0 0 1-19.56-85.74c10.91-28.67 45.69-48.43 74.82-53 13.87-2.17 30.33-3.38 43.14 3.27 6.55 3.41 12 8.38 17 13.89q2.34 2.61 4.54 5.33c.63.76 1.25 1.52 1.86 2.29 22.77 28.6 14.7 62.15-9.35 87.42Z" style="fill:url(#ajlinear-gradient)"/><path d="M245.43 159.9a35.93 35.93 0 0 1-5.09 4.41 22.42 22.42 0 0 1-1.15-2.3c-2.64-6-4-12.51-5-19a275.93 275.93 0 0 1-3.19-28.52c-.91-15.34-7.46-22.95 5.57-34.91a43 43 0 0 1 16.35-9.38c.63.76 1.25 1.52 1.86 2.29 22.77 28.59 14.7 62.14-9.35 87.41Z" style="fill:url(#ajlinear-gradient-2)"/><circle cx="134.98" cy="158.85" r="17" style="fill:#e18477"/><circle class="ajcls-2" cx="140.38" cy="158.85" r="15.22"/><path class="ajcls-1" d="M141.65 142.73c.83 10.86.8 24.12 1.09 28q1.13 14.59 2.24 29.17l66.44 38.81a19.76 19.76 0 0 0 24.68-9.85c9.56-19.58 24.9-50.5 22.88-62-3-17-11-23-11-23l3.33-19.94c3.37-20.27-3.58-39.46-27.26-41.68-5-.46-10.57.49-13.54 4.48-8 10.76-3.39 24-15.4 34-14.58 12.03-47.11 17.28-54.73 7.57 0 0 .7 6.87 1.27 14.44Z"/><path class="ajcls-6" d="M191.51 185.15a29.78 29.78 0 0 0 18.54 9.69M215.13 137.94c-.08.35 13.36 36.13 13.36 36.13l-17.94.87M172.65 131a80.58 80.58 0 0 1 28.13-.8M231.7 131.13a55 55 0 0 1 17.45-1.21"/><path class="ajcls-7" d="M296.41 282a184.56 184.56 0 0 1-226.48-1l48.66-22.81a46.83 46.83 0 0 0 6.65-3.82c.64-.44 1.28-.9 1.89-1.38a46.35 46.35 0 0 0 12.78-15.09 44.69 44.69 0 0 0 4.64-14.48 28.66 28.66 0 0 0 2.22 1.94 95.14 95.14 0 0 0 19.82 11.26 99 99 0 0 0 10.46 3.69 93.52 93.52 0 0 0 33 3.49c1.54-.12 3.09-.27 4.63-.38l.15 5.08v.33l12.1 4.92ZM186.28 142.24c6.1 0 6.1 9.38 0 9.43H186c-6.11 0-6.11-9.38 0-9.43h.27ZM236.41 140.85c5.66.05 5.66 8.7 0 8.75h-.26c-5.66 0-5.66-8.7 0-8.75h.26Z"/></svg><svg viewBox="0 0 366.34 366.34" id="avatar_(19)" data-name="Layer 1" xmlns="http://www.w3.org/2000/svg"><defs><linearGradient id="aklinear-gradient" x1="69.93" y1="299.08" x2="296.41" y2="299.08" gradientUnits="userSpaceOnUse"><stop offset="0" stop-color="#315676"/><stop offset="1" stop-color="#e1b9e0"/></linearGradient><style>.akcls-1{fill:#00214e}.akcls-2{fill:#e18477}.akcls-3{fill:#a76962}.akcls-4{fill:none;stroke:#00214e;stroke-miterlimit:10}</style></defs><path class="akcls-1" d="M278.48 125.53c0 7.87-8.9 14.47-10.84 21.73-2 7.52 2.34 17.67-1.46 24.25s-14.87 8-20.28 13.37-6.71 16.42-13.38 20.28-16.73-.54-24.24 1.47c-7.26 1.94-13.86 10.84-21.74 10.84s-14.47-8.9-21.73-10.84c-7.51-2-17.67 2.34-24.24-1.47s-8-14.86-13.38-20.28-16.42-6.7-20.28-13.37.54-16.73-1.46-24.25c-1.94-7.26-10.84-13.86-10.84-21.73s8.9-14.47 10.84-21.73c2-7.52-2.34-17.67 1.46-24.25s14.87-8 20.28-13.37 6.7-16.42 13.38-20.28 16.73.54 24.24-1.47c7.26-1.94 13.86-10.84 21.73-10.84s14.48 8.9 21.74 10.84c7.51 2 17.66-2.34 24.24 1.47s8 14.86 13.38 20.28 16.42 6.7 20.28 13.37-.55 16.73 1.46 24.25c1.94 7.26 10.84 13.86 10.84 21.73Z"/><circle class="akcls-2" cx="134.82" cy="171.25" r="17"/><circle class="akcls-3" cx="140.68" cy="170.25" r="16"/><path class="akcls-2" d="M296.41 294.43a184.56 184.56 0 0 1-226.48-1l48.66-22.81a46.83 46.83 0 0 0 6.65-3.82c.64-.44 1.28-.9 1.89-1.38a46.35 46.35 0 0 0 12.78-15.09c4-7.55 5.32-15.89 5.38-24.39 0-5.72-.31-11.44-.37-17.17q-.06-4.75-.1-9.51l2 1L152 203l2.41.41 27.88 4.74 31.12 5.3.94 32 .46 15.54v.33l12.1 4.92Z"/><path class="akcls-3" d="m214.69 257.38-1.54.16a51.49 51.49 0 0 1-40.67-14.65l-27.38-32.51c-.09-2.9-.2 0-.23-2.91q-.06-4.75-.1-9.51l2 1 5.2 2.69 2.41.41 27.88 4.74 31.12 5.3.94 32Z"/><path class="akcls-2" d="M139.93 136.65c-.79 1-1.49 2.95-2.24 6.11-1.73 7.33 5.85 55.46 7.3 69.62l36.42 26.86a51.51 51.51 0 0 0 42.29 8.94c5.87-1.39 9.59-2.29 12.24-7 5.12-9 17.69-39.79 18.51-61.51.23-6.16.08-15.56-3.72-20.82-1.85-2.55-2.8-2.6-2.13-6.21s1.68-7.47 2.51-11.21c2.29-10.33 4.12-22 .81-32.28-1.76-5.5-4.87-9.14-9.29-12.67-4.72-3.78-6.67-3.6-9.5 2-1.91 3.8-3.83 7-7.7 9.16-5.61 3.11-9.43 1.09-15 .66-4.88-.37-4.36 3.4-5.43 7a16.87 16.87 0 0 1-6.77 9.25 18.53 18.53 0 0 1-20 .11 4.75 4.75 0 0 0-2.85-.89c-3.34.18-3.49 4.19-4.25 7.07-1.61 6-8.62 9.32-14.85 8.84-10.16-.76-13.78-6.42-16.35-3.03Z"/><path class="akcls-4" d="M220.19 154.54a57.27 57.27 0 0 0 2 11.48c1 3.31 2.52 5.37 4.52 8.22a18.39 18.39 0 0 1 1.79 3c2.64 5.94-.87 12.53-7.55 12.53h-4.13M191.16 199.57a29.83 29.83 0 0 0 18.54 9.69M172.49 143.42a80.57 80.57 0 0 1 28.13-.79M231.54 143.53a55 55 0 0 1 17.46-1.21"/><path d="M296.41 294.43a184.56 184.56 0 0 1-226.48-1l48.66-22.81a46.83 46.83 0 0 0 6.65-3.82c.64-.44 1.28-.9 1.89-1.38 23.55 16.76 55.69 27.33 83.49 14.82 6.62-3 12.7-7.84 16.3-14.06Z" style="fill:url(#aklinear-gradient)"/><path class="akcls-4" d="M203.49 182.73a3.41 3.41 0 0 0 2.11 6.39"/><path class="akcls-1" d="M187.17 152.93c6.11 0 6.11 9.38 0 9.43h-.27c-6.1-.05-6.1-9.38 0-9.43h.27ZM237.44 152.27c5.66 0 5.66 8.7 0 8.75h-.26c-5.66-.05-5.66-8.7 0-8.75h.26Z"/></svg><svg viewBox="0 0 366.34 366.34" id="avatar_(2)" data-name="Layer 1" xmlns="http://www.w3.org/2000/svg"><defs><linearGradient id="allinear-gradient" x1="109.87" y1="140.89" x2="166.58" y2="65.41" gradientUnits="userSpaceOnUse"><stop offset=".29" stop-color="#00214e"/><stop offset=".51" stop-color="#6878b1"/><stop offset=".79" stop-color="#00214e"/></linearGradient><style>.alcls-1{fill:#00214e}.alcls-2{fill:#f2a196}.alcls-3{fill:#e88870}.alcls-4{fill:none;stroke:#00214e;stroke-miterlimit:10}</style></defs><path class="alcls-1" d="M258.38 149.67c-.41-33.19-6.33-69.59-36.31-89.15-27.07-17.66-63.75-16.8-90.62.48a77.55 77.55 0 0 0-10.22 7.8 105.09 105.09 0 0 0-26.66 39 130.84 130.84 0 0 0-9 54.2c1.67 37.14-2.36 74.39-2.36 111.68 0 1.29 0 2.77 1 3.59a4.27 4.27 0 0 0 3 .59c15.62-.87 29.45-3.57 44.53-6.08 18.8-3.12 39.07-2.23 58.1-3.42 11.33-.66 23.24-2.49 34.57-2 3.61.16 35.22 4.85 35.36 6.8-3.02-41.36-.88-82.16-1.39-123.49ZM148 145.49l-14.09-10a130.31 130.31 0 0 0 31.94-16 70.63 70.63 0 0 0 21.84-23l5.71 3.61Z"/><path class="alcls-2" d="M296.41 280.37a184.56 184.56 0 0 1-226.48-1l48.66-22.81a47.68 47.68 0 0 0 4.35-2.34l1.12-.7c.4-.25.79-.51 1.18-.78a46.54 46.54 0 0 0 14.67-16.47c4-7.55 5.32-15.89 5.38-24.39 0-4.67-.19-9.34-.31-14q0-1.57-.06-3.15-.06-4.75-.1-9.51h.07l1.91 1 5.2 2.69 30.29 5.15 31.12 5.3.71 24 .2 6.88v1.07l.47 15.87 11.47 4.67 9 3.64Z"/><path class="alcls-3" d="M214.12 223.37a12.12 12.12 0 0 1-7.34 2.11C192 223.89 163.14 212.3 145 190.85q0-1.57-.06-3.15v-2.47l1.91 1 5.2 2.69 30.29 5.15 31.12 5.3Z"/><circle class="alcls-2" cx="119.82" cy="153.19" r="17"/><circle class="alcls-3" cx="125.82" cy="151.19" r="17"/><path class="alcls-2" d="M235.36 127.45c11.74 40.68-13.2 89.87-28.54 89.87-21 0-72-16.78-83.73-57.46S127 78.94 158 70s65.62 16.76 77.36 57.45Z"/><path class="alcls-4" d="M177.31 176.87a29.74 29.74 0 0 0 18.54 9.69M197.93 131.73c-.05.2 4.79 8.56 7.31 17.59a58 58 0 0 1 1.62 14.76h-13.51M210.34 123.22a31.18 31.18 0 0 1 22.85-2.16M151.19 127.2a36.75 36.75 0 0 1 31.23-1"/><path class="alcls-1" d="M168.73 136.06c6.1.05 6.1 9.38 0 9.42h-.27c-6.1 0-6.1-9.37 0-9.42h.27ZM218.86 134.67c5.66 0 5.66 8.7 0 8.74h-.25c-5.67 0-5.67-8.7 0-8.74h.25ZM198.93 59.32a113.91 113.91 0 0 1-2.27 14 81 81 0 0 1-9 23.18 70.63 70.63 0 0 1-21.84 23 130.31 130.31 0 0 1-31.94 16 202.94 202.94 0 0 1-27.46 7.23c.31-7.63 0-17.07.94-25.93.7-6.36 2.1-12.43 4.92-17.32a79.54 79.54 0 0 1 32.19-30.3l.12-.06c14.79-7.61 37.7-15.12 54.34-9.8Z"/><path d="M296.41 280.37a184.56 184.56 0 0 1-226.48-1l48.66-22.81a46.83 46.83 0 0 0 6.65-3.82c.64-.44 1.28-.9 1.89-1.38a46.35 46.35 0 0 0 12.78-15.09 44.69 44.69 0 0 0 4.64-14.48 28.66 28.66 0 0 0 2.22 1.94A95.14 95.14 0 0 0 166.59 235a99 99 0 0 0 10.46 3.69 93.52 93.52 0 0 0 33 3.49c1.54-.12 3.09-.27 4.63-.38l.15 5.08v.33l12.1 4.92Z" style="fill:#f2d4cf"/><path d="M187.64 96.54a70.63 70.63 0 0 1-21.84 23 130.31 130.31 0 0 1-31.94 16l-26.52-18.7-12.77-9a105.09 105.09 0 0 1 26.66-39A77.55 77.55 0 0 1 131.45 61l13 8.22Z" style="fill:url(#allinear-gradient)"/></svg><svg viewBox="0 0 366.34 366.34" id="avatar_(20)" data-name="Layer 1" xmlns="http://www.w3.org/2000/svg"><defs><linearGradient id="amlinear-gradient" x1="115.33" y1="201.98" x2="381.19" y2="-45.12" gradientUnits="userSpaceOnUse"><stop offset="0" stop-color="#315676"/><stop offset="1" stop-color="#e1b9e0"/></linearGradient><style>.amcls-2{fill:#845161}.amcls-3{fill:#69303a}.amcls-4{fill:none;stroke:#00214e;stroke-miterlimit:10}.amcls-6{fill:#00214e}</style></defs><path d="M301.17 138.92c0 7.61-8.67 14.27-10.09 21.47-1.47 7.41 4 16.88 1.14 23.7s-13.44 9.78-17.57 15.94-2.77 17.06-8 22.33-16.11 3.87-22.32 8-9 14.7-15.95 17.57-16.28-2.6-23.7-1.13c-7.19 1.42-13.86 10.09-21.47 10.09s-14.27-8.67-21.47-10.09c-7.41-1.47-16.88 4-23.7 1.13s-9.77-13.44-15.94-17.57-17.06-2.76-22.33-8-3.87-16.11-8-22.33S77 191 74.13 184.09s2.6-16.29 1.14-23.7c-1.43-7.2-10.1-13.86-10.1-21.47s8.67-14.28 10.1-21.47c1.46-7.41-4-16.88-1.14-23.7S87.57 84 91.7 77.8s2.76-17 8-22.32 16.11-3.87 22.33-8 9-14.69 15.94-17.57 16.29 2.61 23.7 1.14c7.2-1.42 13.86-10.09 21.47-10.09s14.31 8.63 21.5 10.04c7.42 1.47 16.88-4 23.7-1.14s9.78 13.45 15.95 17.58 17 2.76 22.32 8 3.88 16.11 8 22.33 14.69 9 17.57 15.94-2.61 16.29-1.14 23.7c1.46 7.23 10.13 13.9 10.13 21.51Z" style="fill:url(#amlinear-gradient)"/><circle class="amcls-2" cx="132.17" cy="183.92" r="17"/><circle class="amcls-3" cx="138.03" cy="182.92" r="16"/><path class="amcls-2" d="M293.76 307.1a184.56 184.56 0 0 1-226.48-1l48.66-22.81a46.83 46.83 0 0 0 6.65-3.82c.64-.44 1.28-.9 1.89-1.38A46.35 46.35 0 0 0 137.26 263c4-7.55 5.32-15.89 5.38-24.39 0-1.74 0-3.49-.06-5.23-.09-4-.27-8-.31-11.94q-.06-4.76-.1-9.51l2 1 5.2 2.69 2.41.41 27.88 4.74 31.12 5.3.94 32 .36 12.21.1 3.33v.33l12.1 4.92Z"/><path class="amcls-3" d="m212.09 270.47-1.54.16A51.49 51.49 0 0 1 169.88 256l-27.38-32.53c-.09-2.9-.2 0-.23-2.91q-.06-4.76-.1-9.51l2 1 5.2 2.69 2.41.41 27.88 4.74 31.12 5.3.94 32Z"/><path class="amcls-2" d="M137.28 149.32c-.79 1-1.49 3-2.24 6.11-1.73 7.33 5.85 55.45 7.3 69.62l36.42 26.85a51.48 51.48 0 0 0 42.29 9c5.87-1.39 9.59-2.29 12.24-7 5.12-9 17.69-39.79 18.51-61.51.23-6.16.08-15.57-3.72-20.82-1.85-2.55-2.8-2.6-2.13-6.21.69-3.76 1.68-7.47 2.51-11.21 2.29-10.33 4.12-22 .81-32.28-1.76-5.5-4.87-9.14-9.29-12.68-4.72-3.78-6.67-3.59-9.5 2-1.91 3.8-3.83 7-7.7 9.16-5.61 3.11-9.43 1.09-15 .66-4.88-.37-4.36 3.4-5.43 6.95a16.8 16.8 0 0 1-6.77 9.25 18.53 18.53 0 0 1-20 .12 4.75 4.75 0 0 0-2.85-.89c-3.34.18-3.49 4.19-4.25 7.07-1.61 6-8.62 9.32-14.85 8.83-10.16-.75-13.78-6.41-16.35-3.02Z"/><path class="amcls-4" d="M217.54 167.2a57.24 57.24 0 0 0 2 11.49c1 3.31 2.52 5.36 4.52 8.22a18.39 18.39 0 0 1 1.79 3c2.64 5.94-.87 12.53-7.55 12.53h-4.13M188.51 212.23a29.85 29.85 0 0 0 18.54 9.7M169.84 156.09a80.82 80.82 0 0 1 28.13-.8M228.89 156.2a55 55 0 0 1 17.45-1.2"/><path d="M293.76 307.1a184.56 184.56 0 0 1-226.48-1l48.66-22.81a46.83 46.83 0 0 0 6.65-3.82c.64-.44 1.28-.9 1.89-1.38C148 294.84 180.17 305.41 208 292.9c6.62-3 12.7-7.84 16.3-14.06Z" style="fill:#ff2609"/><path class="amcls-4" d="M200.84 195.4a3.4 3.4 0 0 0 2.11 6.38"/><path class="amcls-6" d="M185.34 163.73c6.1.05 6.1 9.37 0 9.42h-.28c-6.1-.05-6.1-9.37 0-9.42h.28ZM235.6 163.73c5.66 0 5.66 8.7 0 8.74h-.26c-5.66 0-5.66-8.7 0-8.74h.26Z"/></svg><svg viewBox="0 0 366.34 366.34" id="avatar_(21)" data-name="Layer 1" xmlns="http://www.w3.org/2000/svg"><defs><linearGradient id="anlinear-gradient" x1="135.61" y1="137.64" x2="164.83" y2="68.33" gradientUnits="userSpaceOnUse"><stop offset=".29" stop-color="#00214e"/><stop offset=".51" stop-color="#6878b1"/><stop offset=".79" stop-color="#00214e"/></linearGradient><style>.ancls-1{fill:#00214e}.ancls-2{fill:#f2d4cf}.ancls-3{fill:#daaea8}.ancls-5{fill:none;stroke:#00214e;stroke-miterlimit:10}</style></defs><path class="ancls-1" d="M244.67 107.86c-4.24-19.92-6-35.11-23.19-47.8-13.73-10.12-31.27-15.53-48.34-14.18-14.48 1.15-32.65 6.3-46.87 15A58.94 58.94 0 0 0 110.06 75c-6.31 8.32-10.83 18.44-14.27 29.18-5.18 16.15-8 33.72-10.79 48.71-4.85 25.51-9.19 51.11-13.54 76.71 29.94 3 186.24 2.11 186.24 2.11s-3.58-79.56-13.03-123.85ZM170.5 128.3l-16.8-5.43 50.66-19 3.71 2.06Z"/><path class="ancls-2" d="M296.41 282.34a184.56 184.56 0 0 1-226.48-1l48.66-22.81a47.68 47.68 0 0 0 4.35-2.34l1.12-.7c.4-.25.79-.51 1.18-.78a46.54 46.54 0 0 0 14.67-16.47c4-7.55 5.32-15.89 5.38-24.39 0-5.72-.31-11.44-.37-17.17q-.06-4.75-.1-9.51l2 1 5.2 2.69 30.27 5.14 31.12 5.3.94 32 .47 15.87 11.47 4.67 9 3.64Z"/><path class="ancls-3" d="M214.16 229.6c-2.72 1.68-5.29 2.47-7.54 2.23-14.79-1.59-43.64-13.18-61.8-34.63q0-1.57-.06-3.15-.06-4.76-.1-9.51l2 1 5.2 2.69 30.29 5.15 31.12 5.3Z"/><path d="M296.41 282.34a184.56 184.56 0 0 1-226.48-1l48.66-22.81q2.25-1.06 4.35-2.33c23.68 17.41 56.64 28.74 85.06 15.95 8.06-3.62 15.33-10.05 18.29-18.31l9 3.64Z" style="fill:#ff2609"/><circle class="ancls-2" cx="118.14" cy="153.89" r="17"/><circle class="ancls-3" cx="124.14" cy="151.89" r="17"/><path class="ancls-2" d="M233.68 128.14c11.74 40.69-13.2 89.88-28.54 89.88-21 0-72-16.78-83.73-57.47s3.87-80.92 34.87-89.87 65.65 16.78 77.4 57.46Z"/><path class="ancls-5" d="M202.93 124.13a31.08 31.08 0 0 1 22.85-2.13M154.05 126.42a36.76 36.76 0 0 1 31.23-1"/><ellipse class="ancls-1" cx="167.28" cy="139.45" rx="3.27" ry="7.94" transform="rotate(-85.77 167.264 139.447)"/><ellipse class="ancls-1" cx="218.77" cy="137.8" rx="7.94" ry="3.27" transform="rotate(-13.23 218.83 137.848)"/><path class="ancls-5" d="M203.73 148.49s.29 5.65 1.62 8.3c.57 1.14 1.45 2.11 2 3.24 2.21 4.34-1.37 5.25-4.81 5.25M189.81 158.37a3.4 3.4 0 0 0 2.11 6.38"/><path d="M171.83 173.88a1.87 1.87 0 0 1 2.69-.5c2.07 1.46 5.87 4.56 11.27 5.63 7.36 1.47 13.75-1.48 15.27.42.86 1.07-.19 2.38-2.2 4a19.68 19.68 0 0 1-14.86 3.74c-7.09-1.33-12.4-9.53-12.4-12.43a1.69 1.69 0 0 1 .23-.86Z" style="fill:#fff"/><path class="ancls-1" d="m226.5 95.61-22.14 8.29-50.66 18.97h-.01l-37.83 14.17-.58-26.57-.78-35.86 23.49-7.32 37.51-11.68 51 40z"/><path d="m204.36 103.9-50.66 19-38.41-12.4-19.49-6.29c3.44-10.74 8-20.86 14.27-29.18a58.94 58.94 0 0 1 16.21-14.09c3.5 1.89 7.47 4 11.72 6.38 23.45 12.79 55.57 30.59 66.36 36.58Z" style="fill:url(#anlinear-gradient)"/></svg><svg viewBox="0 0 366.34 366.34" id="avatar_(22)" data-name="Layer 1" xmlns="http://www.w3.org/2000/svg"><defs><linearGradient id="aolinear-gradient" x1="-15.15" y1="263.47" x2="221.28" y2="43.73" gradientTransform="rotate(2.41 592.568 1636.524)" gradientUnits="userSpaceOnUse"><stop offset="0" stop-color="#315676"/><stop offset="1" stop-color="#e1b9e0"/></linearGradient><linearGradient id="aolinear-gradient-2" x1="73.23" y1="308.27" x2="299.71" y2="308.27" gradientUnits="userSpaceOnUse"><stop offset="0" stop-color="#16243f"/><stop offset="1" stop-color="#6878b1"/></linearGradient><linearGradient id="aolinear-gradient-3" x1="73.92" y1="213.74" x2="144.87" y2="76.5" xlink:href="#aolinear-gradient"/><style>.aocls-2{fill:#845161}.aocls-3{fill:#69303a}.aocls-5{fill:#00214e}.aocls-6{fill:none;stroke:#00214e;stroke-miterlimit:10}</style></defs><path d="M276.33 133.92c-.28 6.74-9.1 12.18-10.63 18.49-1.57 6.51 3.74 15.38 1 21.31s-13 7.69-16.93 13-2.4 15.59-7.26 20.06-14.94 2.09-20.59 5.54-8.12 13.49-14.37 15.77-14.54-3.79-21.15-2.77c-6.42 1-12.58 9.32-19.32 9s-12.18-9.1-18.49-10.63c-6.5-1.58-15.38 3.74-21.31 1s-7.68-13-13-16.92-15.59-2.4-20.06-7.26-2.1-14.94-5.55-20.6-13.47-8.11-15.76-14.35 3.8-14.54 2.77-21.15c-1-6.42-9.32-12.59-9-19.32s9.11-12.18 10.64-18.49c1.57-6.5-3.74-15.38-1-21.31s13-7.68 16.92-13 2.41-15.59 7.27-20 14.94-2.1 20.59-5.55 8.12-13.48 14.37-15.77 14.53 3.75 21.12 2.73c6.41-1 12.58-9.32 19.31-9s12.18 9.11 18.5 10.63c6.5 1.58 15.37-3.74 21.3-1s7.69 13 13 16.92 15.59 2.4 20.06 7.26 2.1 14.95 5.55 20.6 13.48 8.12 15.77 14.36-3.8 14.54-2.78 21.15c.98 6.38 9.32 12.57 9.03 19.3Z" style="fill:url(#aolinear-gradient)"/><path class="aocls-2" d="M299.71 303.37a184.56 184.56 0 0 1-226.48-1l48.66-22.81a47.68 47.68 0 0 0 4.35-2.34l1.12-.7c.4-.25.79-.51 1.18-.78a46.54 46.54 0 0 0 14.67-16.47c4-7.55 5.32-15.89 5.38-24.39 0-5.72-.31-11.44-.37-17.17q-.06-4.75-.1-9.51l2 1 5.2 2.69 30.29 5.15 31.12 5.3.94 32 .47 15.87 11.47 4.67 9 3.64Z"/><path class="aocls-3" d="M217.65 254.32a60.08 60.08 0 0 1-30.07-2.32c-21.58-7.25-36.11-24.74-37.48-42.76l5.2 2.69 30.29 5.15 31.12 5.3Z"/><path d="M299.71 303.37a184.56 184.56 0 0 1-226.48-1l48.66-22.81a47.68 47.68 0 0 0 4.35-2.34c23.68 17.41 56.63 28.75 85.06 16 8.06-3.62 15.33-10.05 18.29-18.31l9 3.64Z" style="fill:url(#aolinear-gradient-2)"/><circle class="aocls-2" cx="125.61" cy="174.64" r="17"/><circle class="aocls-3" cx="131.69" cy="172.9" r="17"/><path class="aocls-2" d="M209.28 242.38c-21-.89-71.22-19.8-81.25-60.94a98.19 98.19 0 0 1-2.8-26.21c0-1.73.16-3.44.3-5.14 2.47-28.26 17.95-51.33 41.12-57 1.34-.32 2.68-.59 4-.78A47.89 47.89 0 0 1 194.62 95a66.86 66.86 0 0 1 25.59 17.76 83.83 83.83 0 0 1 8.09 10.36 96.3 96.3 0 0 1 13.27 30.64c10.02 41.17-16.97 89.24-32.29 88.62Z"/><path class="aocls-5" d="M176.54 156.08c6.09.31 5.7 9.62-.4 9.42h-.27c-6.1-.31-5.7-9.63.39-9.42h.28ZM226.92 154.36c5.65.29 5.29 8.93-.37 8.74h-.26c-5.65-.28-5.29-8.93.37-8.74h.26Z"/><path class="aocls-6" d="M208.64 154.07a57 57 0 0 0 1.52 11.56c.9 3.35 2.29 5.47 4.17 8.4a18.86 18.86 0 0 1 1.66 3.06c2.39 6-1.39 12.48-8.07 12.2l-4.12-.18M179.4 199.27a29.8 29.8 0 0 0 18.12 10.46M189.51 180.84a3.4 3.4 0 0 0 1.84 6.47M213.89 142a31.12 31.12 0 0 1 22.92-1.2M161.34 142.68a36.69 36.69 0 0 1 31.24.34"/><path d="M222 113.51c.49 1.18.39 2.21-.45 3.82a24.48 24.48 0 0 1-3.72 5.25 24.34 24.34 0 0 1-24.28 7.15A22.06 22.06 0 0 1 187 127c-1.5-1-3.24-3.36-5.28-2.56a4.08 4.08 0 0 0-1.85 2c-3.27 5.78-5.28 11.85-11.74 14.89a19.72 19.72 0 0 1-11.92 1.16c-3.42-.61-4.48-3.32-7.41-4.15-1.65-.47-3.3.8-4.3 2.2-1.89 2.65-2.05 6-3.61 8.81-2 3.7-6.07 7-10.41 7.48a5.19 5.19 0 0 1-4.62-1.73c-2.21-2.86-.9-8-.48-11.31 1.6-12.38 5.86-24.64 13.39-34.69 6.79-9 16.28-16 27.34-18.65 19.15-4.67 42.86 6.5 54.75 21.16a7 7 0 0 1 1.14 1.9Z" style="fill:url(#aolinear-gradient-3)"/><path class="aocls-5" d="M219.7 110.17c-18.41-4.94-40.11-4-54.84 4.27-25.6 14.34-31.61 25.72-39.75 37.65l-.35.53c0-.69 0-1.39.09-2.08 1.58-29.65 17.33-54.19 41.33-60 18.91-4.61 38.63 3.45 53.49 19.6Z"/></svg><svg viewBox="0 0 366.34 366.34" id="avatar_(23)" data-name="Layer 1" xmlns="http://www.w3.org/2000/svg"><defs><linearGradient id="aplinear-gradient" x1="174.54" y1="122.6" x2="320.66" y2="150.53" gradientUnits="userSpaceOnUse"><stop offset="0" stop-color="#16243f"/><stop offset="1" stop-color="#6878b1"/></linearGradient><linearGradient id="aplinear-gradient-2" x1="128.47" y1="101.14" x2="275.6" y2="156.81" xlink:href="#aplinear-gradient"/><linearGradient id="aplinear-gradient-3" x1="144.35" y1="220.61" x2="249.3" y2="220.61" xlink:href="#aplinear-gradient"/><style>.apcls-1{fill:#845161}.apcls-3{fill:#69303a}.apcls-7{fill:none;stroke-miterlimit:10;stroke:#00214e}.apcls-10{fill:#00214e}</style></defs><path class="apcls-1" d="M296.41 288.65a184.56 184.56 0 0 1-226.48-1l48.66-22.81a46.83 46.83 0 0 0 6.65-3.82c.64-.44 1.28-.9 1.89-1.38a46.35 46.35 0 0 0 12.78-15.09 44.69 44.69 0 0 0 4.64-14.48 67.91 67.91 0 0 0 .74-9.91c0-5.72-.31-11.44-.37-17.17q-.06-4.75-.1-9.51l2 1 5.2 2.69 2.41.41 27.88 4.74 31.12 5.3.94 32 .31 10.46.15 5.08v.33l12.1 4.92Z"/><path d="M296.41 288.65a184.56 184.56 0 0 1-226.48-1l48.66-22.81a46.83 46.83 0 0 0 6.65-3.82c.64-.44 1.28-.9 1.89-1.38 23.55 16.76 55.69 27.33 83.49 14.82 6.62-3 12.7-7.84 16.3-14.06Z" style="fill:#ff2609"/><path class="apcls-3" d="M214.81 255.14c-10.45.63-22.13-2.07-33-8.34-20.41-11.79-31.32-32.35-27.4-49.21l27.88 4.74 31.12 5.3.94 32Z"/><path d="M264.4 132c-1.72 17.75-7.19 35.36-17.47 49.33a26.17 26.17 0 0 1-5.94 6.2c-4 0-9.71 3.85-14.3 4.2-3.45.27-7.1-.75-10.45-.27-10.46 1.49-21.66 8.91-31.26 13.23-6.49 2.91-13.15 5.86-20.24 6.32-7.53.47-14.62-1.9-21-5.87-.93-.57-1.84-1.17-2.73-1.81a73.81 73.81 0 0 1-15.59-15.58c-14.68-19.41-24-45.13-20.53-70.06 7.85-56 78.52-90.39 129.37-74.36a28.43 28.43 0 0 1 5.39 2.33 20.39 20.39 0 0 1 2.08 1.28c.7.82 1.39 1.66 2.06 2.51 1.38 1.73 2.71 3.52 4 5.35l.66 1A110.87 110.87 0 0 1 260.11 78c7.05 18.09 6.15 34.81 4.29 54Z" style="fill:url(#aplinear-gradient)"/><path d="M239.64 45.65a34.35 34.35 0 0 1-2.76 9.55q-6.54 16.33-14 32.3c-2.5 5.38-4.85 10.92-7.51 16.23-1 2-1.83 4.11-3 6-1.39 2.24-3.21 4.21-4.68 6.4-2.27 3.42-5 6.62-7.57 9.8q-8.21 10.06-17.4 19.29c-6.62 6.65-13.61 12.94-20.09 19.73a91.42 91.42 0 0 0-8.63 9.76 63.71 63.71 0 0 0-4.54 7.95c-1.11 2.17-3.11 4.85-3.19 7.36a53 53 0 0 0 2.09 16.52 37.87 37.87 0 0 1-12.95-7.74 81.16 81.16 0 0 1-10-11.09c-14.68-19.41-24-45.13-20.53-70.06 7.85-56 78.52-90.39 129.37-74.36a28.43 28.43 0 0 1 5.39 2.36Z" style="fill:url(#aplinear-gradient-2)"/><circle class="apcls-1" cx="134.98" cy="165.47" r="17"/><circle class="apcls-3" cx="140.38" cy="165.47" r="15.22"/><path class="apcls-1" d="M248 150.47s4.57 9.68 4.84 26.94a84.2 84.2 0 0 1-3.65 24.13c-1.28 4.54-2.8 9-4.36 13.32-4.25 11.78-8.29 26-20.94 31.11-12.38 5-28.46-.13-40.06-5.3a84.39 84.39 0 0 1-11.38-6.16l-.21-.14a77.19 77.19 0 0 1-6.63-4.77 82.84 82.84 0 0 1-13-12.84c-4.73-5.81-7.56-10.16-8.12-17.42 0-.34-.05-.68-.08-1-.47-6.24-5.89-54.59-6.43-57.61a136 136 0 0 0 55.91-19l.25-.15c1-.61 2.07-1.25 3.17-1.9 2-1.17 4.1-2.42 6.17-3.76 4.7-3.06 9.16-6.59 11.39-10.86a30.28 30.28 0 0 0 9.22 7.33c.2.12.41.23.62.34.73.39 1.46.76 2.2 1.11a53.16 53.16 0 0 0 6.81 2.71c8.09 2.56 11.22 2.91 19.61 4.1-.61-.07-5 27.72-5.33 29.82Z"/><path d="M224 112.32a25.19 25.19 0 0 1-9.55 3.91 33.42 33.42 0 0 1-10-.22l-1-.16c4.7-3.06 9.16-6.59 11.39-10.86a30.28 30.28 0 0 0 9.16 7.33Z" style="fill:#fff"/><path class="apcls-7" d="M217.05 154.3c-.06.24 5.54 15.88 8.93 25.32a5.25 5.25 0 0 1-4.95 7h-3.63M203.4 180.56a3.15 3.15 0 0 0 2.3 5.78M169.11 142.72a80.82 80.82 0 0 1 28.13-.8M231.7 141.77a55 55 0 0 1 17.45-1.21M195.85 157.92a11.6 11.6 0 0 1-5.18 8.32 12.14 12.14 0 0 1-1.85 1 23.58 23.58 0 0 1-6.41 1.37M197.21 125.54h31.6M193.18 132.06h31.61M228.67 155.64a34.8 34.8 0 0 0 3.74 7.22 10.09 10.09 0 0 0 6.24 4"/><path d="M249.3 201.45c-1.31 4.71-2.87 9.33-4.49 13.8-4.26 11.78-8.3 26-20.95 31.1-12.37 5-28.46-.13-40.05-5.3a79.51 79.51 0 0 1-11.38-6.54l-.21-.14c-2.19-1.48-4.42-3.09-6.63-4.77a82.84 82.84 0 0 1-13-12.84c-4.73-5.81-7.56-10.16-8.12-17.42 0-.34-.05-.68-.08-1 11.36 8.64 27.93 14 40.62 7.76 6.89-3.38 13.64-7.79 20.83-10.57a35.05 35.05 0 0 1 15.11-2.61c7.34.5 10.48 3.81 15.85 8.18 1.76 1.44 3.73 2.94 6 3a11.52 11.52 0 0 0 6.4-2.48Z" style="fill:url(#aplinear-gradient-3)"/><path d="M202.55 202.91a29.78 29.78 0 0 0 20.92.19" style="stroke:#e18477;fill:none;stroke-miterlimit:10"/><path class="apcls-10" d="M186.21 152.42c6.11-.07 6.29 9.25.19 9.42h-.28c-6.1.07-6.28-9.25-.18-9.42h.27ZM236.45 150.78c5.66-.06 5.83 8.59.17 8.74h-.25c-5.67.06-5.83-8.59-.17-8.75h.25Z"/></svg><svg viewBox="0 0 366.34 366.34" id="avatar_(24)" data-name="Layer 1" xmlns="http://www.w3.org/2000/svg"><defs><linearGradient id="aqlinear-gradient" x1="110.16" y1="129.07" x2="269.6" y2="129.07" gradientUnits="userSpaceOnUse"><stop offset="0" stop-color="#16243f"/><stop offset="1" stop-color="#6878b1"/></linearGradient><linearGradient id="aqlinear-gradient-2" x1="69.93" y1="286.17" x2="296.41" y2="286.17" xlink:href="#aqlinear-gradient"/><linearGradient id="aqlinear-gradient-3" x1="112.81" y1="199.94" x2="245.48" y2="218.24" xlink:href="#aqlinear-gradient"/><style>.aqcls-2{fill:#f2a196}.aqcls-4{fill:#e88870}.aqcls-7{fill:none;stroke-miterlimit:10;stroke:#00214e}.aqcls-8{fill:#00214e}</style></defs><path d="M269.24 88.86a41.23 41.23 0 0 1-5.61 26.47c-4.73 8.09-6.41 16.36-9.33 25-2.42 7.21-2.81 17-7.07 23.39-9.35 14-27.48 16.4-42.24 21.44a11.6 11.6 0 0 0-2.82.91l-5.23 1.65q-7.51 2.37-15 4.8c-5.66 1.83-11.3 3.7-16.92 5.66-2.51.88-5.09 1.67-7.57 2.61-1.42.53-2.24 2-3.16 3.18a51.53 51.53 0 0 0-4 6.68 1.92 1.92 0 0 1-.57.72 1.75 1.75 0 0 1-.87.21 8.45 8.45 0 0 1-6-2.7c-4.74-4.6-8.13-11-11.26-16.71a82.06 82.06 0 0 1-5-10.36 90.75 90.75 0 0 1-3.08-10.81c-6.65-27.67-22.78-58-5.89-85.72 6.47-10.6 17.15-17.93 28.14-23.71 16.64-8.76 35-14.78 53.85-15 23.31-.31 61.81 12.13 68.68 37.64a41.45 41.45 0 0 1 .92 4.54Z" style="fill:url(#aqlinear-gradient)"/><path class="aqcls-2" d="M296.41 281.52a184.56 184.56 0 0 1-226.48-1l48.66-22.81a46.83 46.83 0 0 0 6.65-3.82c.64-.44 1.28-.9 1.89-1.38a46.35 46.35 0 0 0 12.78-15.09 44.69 44.69 0 0 0 4.64-14.48 67.91 67.91 0 0 0 .74-9.91c0-5.72-.31-11.44-.37-17.17q-.06-4.75-.1-9.51l2 1 5.2 2.69 2.41.41 27.88 4.74 31.12 5.3.94 32 .31 10.46.15 5.08v.33l12.1 4.92Z"/><path d="M296.41 281.52a184.56 184.56 0 0 1-226.48-1l48.66-22.81a46.83 46.83 0 0 0 6.65-3.82c.64-.44 1.28-.9 1.89-1.38 23.55 16.76 55.69 27.33 83.49 14.82 6.62-3 12.7-7.84 16.3-14.06Z" style="fill:url(#aqlinear-gradient-2)"/><path class="aqcls-4" d="M214.81 248c-10.45.63-22.13-2.07-33-8.34-20.41-11.79-31.32-32.35-27.4-49.21l27.88 4.74 31.12 5.3.94 32Z"/><circle class="aqcls-2" cx="127.98" cy="158.34" r="17"/><circle class="aqcls-4" cx="133.38" cy="158.34" r="15.22"/><path class="aqcls-2" d="M241 143.33s4.57 9.68 4.84 26.94a83.66 83.66 0 0 1-3.52 23.66c-1.31 4.71-2.87 9.33-4.49 13.81-4.26 11.77-8.3 26-20.95 31.09-12.37 5-28.46-.13-40.05-5.3a85.13 85.13 0 0 1-31.26-23.91c-4.73-5.82-7.56-10.17-8.12-17.42 0-.37-.06-.74-.08-1.1q-.74-9.32-1.43-18.63-1.17-15.09-2.32-30.18s29.4-16.17 39.88-21.59c20.33-10.48 43.61-20.79 57.78-39 5.37 6.46 11.91 10.16 14 18.81 1.86 7.55.25 15.4-1 22.9-1.08 6.59-2.19 13.29-3.28 19.92Z"/><path d="M242.31 193.93c-1.31 4.71-2.87 9.33-4.49 13.81-4.26 11.77-8.3 26-20.95 31.09-12.37 5-28.46-.13-40.05-5.3-12.09-5.39-29.2-18.71-37.55-29-4.73-5.82-5-19.81-5-20.17 11.37 8.85 30.89 20.47 43.74 14.17 6.89-3.37 13.64-7.79 20.83-10.56a34.91 34.91 0 0 1 15.11-2.62c7.34.5 10.48 3.81 15.85 8.18 1.76 1.44 3.73 2.94 6 2.95a11.61 11.61 0 0 0 6.51-2.55Z" style="fill:url(#aqlinear-gradient-3)"/><path d="M199.31 198.7a29.78 29.78 0 0 0 20.91.81" style="stroke:#f2a196;fill:none;stroke-miterlimit:10"/><path class="aqcls-7" d="M208.13 142.14c-.08.35 13.36 38.48 13.36 38.48l-17.94.87M162.11 135.59a80.34 80.34 0 0 1 28.13-.8M224.7 134.63a55.64 55.64 0 0 1 17.45-1.21M188.85 150.79a11.64 11.64 0 0 1-5.18 8.32 11.26 11.26 0 0 1-1.85 1 23.59 23.59 0 0 1-6.41 1.38M190.21 118.4h31.6M186.18 124.93h31.61M221.67 148.51a34.8 34.8 0 0 0 3.74 7.22 10.14 10.14 0 0 0 6.24 4"/><path class="aqcls-8" d="M180.72 145.14c6.1-.07 6.28 9.26.18 9.43h-.27c-6.1.07-6.29-9.25-.19-9.42h.28ZM231 143.51c5.66-.07 5.83 8.59.17 8.74h-.26c-5.66.06-5.83-8.59-.17-8.75h.26Z"/></svg><svg viewBox="0 0 366.34 366.34" id="avatar_(25)" data-name="Layer 1" xmlns="http://www.w3.org/2000/svg"><defs><linearGradient id="arlinear-gradient" x1="58.07" y1="146.24" x2="274.7" y2="146.24" gradientUnits="userSpaceOnUse"><stop offset="0" stop-color="#16243f"/><stop offset="1" stop-color="#6878b1"/></linearGradient><linearGradient id="arlinear-gradient-2" x1="315.12" y1="258.13" x2="472.15" y2="203.1" gradientTransform="rotate(-4.48 -1469.975 2972.289)" xlink:href="#arlinear-gradient"/><style>.arcls-2{fill:#f2a196}.arcls-3{fill:#e88870}.arcls-4,.arcls-6{fill:none;stroke-miterlimit:10}.arcls-4{stroke:#fff}.arcls-6{stroke:#00214e}.arcls-9{fill:#00214e}</style></defs><path d="M198.29 246.25c-34.66.16-62.28-3.7-95.79-12.55-13-3.44-44.43-15.36-44.43-15.36 17.57-33.91 33.35-68.6 48.15-103.79 10.08-24 23.36-52.45 49.33-62.28 42.07-15.93 98.89-.45 110.84 46.87 5.5 21.75 4 45.45 4.75 67.7.8 23.7 1.18 47.45 3.56 71.06-22.82 8.44-52.32 8.24-76.41 8.35Z" style="fill:url(#arlinear-gradient)"/><path class="arcls-2" d="M308.27 281.81a184.56 184.56 0 0 1-226.48-1L130.45 258a47.68 47.68 0 0 0 4.35-2.34l1.12-.7c.4-.25.79-.51 1.18-.78a46.54 46.54 0 0 0 14.67-16.47c4-7.55 5.32-15.89 5.38-24.39 0-5.72-.31-11.44-.37-17.17q-.06-4.75-.1-9.51l2 1 5.2 2.69 30.29 5.15 31.12 5.3.94 32 .47 15.87 11.47 4.67 9 3.64Z"/><path class="arcls-3" d="M226.21 232.76a60.08 60.08 0 0 1-30.07-2.35c-21.58-7.25-36.11-24.74-37.48-42.76l5.2 2.69 30.29 5.15 31.12 5.3Z"/><circle class="arcls-2" cx="127.68" cy="154.63" r="17"/><circle class="arcls-3" cx="133.68" cy="152.63" r="17"/><path class="arcls-2" d="M250.6 127.84c12.45 43.15-11.8 93.25-30.27 95.31-44.63 5-76.34-17.79-88.79-60.94s4.1-85.81 37-95.3 69.6 17.79 82.06 60.93Z"/><circle class="arcls-4" cx="184.04" cy="144.13" r="19"/><circle class="arcls-4" cx="237.18" cy="141.13" r="19"/><path d="M208.52 74.8c-4.31 18.7-13.7 34.58-30.87 46.14-18.51 12.83-39.8 14.63-61.12 18.86.53-13.11.83-27.15 7.59-38.85a79.46 79.46 0 0 1 32.31-30.35c14.8-7.66 37.72-15.16 54.35-9.85a112.5 112.5 0 0 1-2.26 14.05Z" style="fill:url(#arlinear-gradient-2)"/><path class="arcls-6" d="M210.26 132.78c-.08.35 9.79 38.85 9.79 38.85h-12.5M221.72 122.57a31.18 31.18 0 0 1 22.85-2.16M166.61 126.27a36.75 36.75 0 0 1 31.23-1"/><path class="arcls-4" d="m203.04 144.13 15.14-1.29"/><path d="M308.27 281.81a184.56 184.56 0 0 1-226.48-1L130.45 258a46.83 46.83 0 0 0 6.65-3.82c.64-.44 1.28-.9 1.89-1.38a46.35 46.35 0 0 0 12.78-15.09 44.69 44.69 0 0 0 4.64-14.48 28.66 28.66 0 0 0 2.22 1.94 95.14 95.14 0 0 0 19.82 11.26 99 99 0 0 0 10.46 3.69 93.52 93.52 0 0 0 33 3.49c1.54-.12 3.09-.27 4.63-.38l.15 5.08v.33l12.1 4.92Z" style="fill:#845161"/><path class="arcls-6" d="M180.26 152.8a10.38 10.38 0 0 0 11-10M224.12 140.61a9 9 0 0 0 3.31 6.77 26.63 26.63 0 0 0 6.67 4M173.2 182.87a25.92 25.92 0 0 1 4.57-5.65A24.7 24.7 0 0 1 191 171M198.92 103.39h23.67M193.15 111.21h29.44"/><path d="M184.27 181.63a1.86 1.86 0 0 1 2.68-.5c2.08 1.46 5.88 4.56 11.28 5.63 7.36 1.47 13.75-1.47 15.27.42.86 1.07-.19 2.38-2.2 4a19.69 19.69 0 0 1-14.86 3.69c-7.08-1.33-12.4-9.53-12.4-12.43a1.69 1.69 0 0 1 .23-.81Z" style="fill:#fff"/><path class="arcls-9" d="M183 137.23c6.1-.07 6.28 9.26.18 9.42h-.27c-6.1.07-6.28-9.25-.18-9.42h.27ZM233.2 135.6c5.66-.07 5.83 8.58.17 8.74h-.25c-5.67.07-5.83-8.58-.17-8.74h.25Z"/></svg><svg viewBox="0 0 366.34 366.34" id="avatar_(26)" data-name="Layer 1" xmlns="http://www.w3.org/2000/svg"><defs><linearGradient id="aslinear-gradient" x1="92.08" y1="175.29" x2="256.69" y2="175.29" gradientUnits="userSpaceOnUse"><stop offset="0" stop-color="#16243f"/><stop offset="1" stop-color="#6878b1"/></linearGradient><linearGradient id="aslinear-gradient-2" x1="92.08" y1="160.85" x2="265.6" y2="160.85" xlink:href="#aslinear-gradient"/><style>.ascls-2{fill:#f2a196}.ascls-3{fill:#e88870}.ascls-5{fill:none;stroke:#00214e;stroke-miterlimit:10}.ascls-6{fill:#00214e}</style></defs><path d="M219.64 257.41a132.68 132.68 0 0 1-18.6 18c-12 9.51-20.95 8.42-34.94 7.15-16.25-1.47-32.38-4.17-48.58-6.16-2.06-.26-4.26-.58-5.78-2.05-1.32-1.29-1.86-3.2-2.34-5a545.72 545.72 0 0 1-17.2-111.46c-1.78-36.06 16-71.36 49.3-84.59 34.65-13.75 79.73-4.62 100.27 29.78 28.81 48.26 12.9 113.31-22.13 154.33Z" style="fill:url(#aslinear-gradient)"/><path class="ascls-2" d="M296.41 280.68a184.56 184.56 0 0 1-226.48-1l48.66-22.81a47.68 47.68 0 0 0 4.35-2.34l1.12-.7c.4-.25.79-.51 1.18-.78a46.54 46.54 0 0 0 14.67-16.47c4-7.55 5.32-15.89 5.38-24.39 0-5.72-.31-11.44-.37-17.17q-.06-4.75-.1-9.51l2 1 5.2 2.69 30.29 5.15 31.12 5.3.94 32 .47 15.87 11.47 4.67 9 3.64Z"/><path class="ascls-3" d="M214.35 231.63a60.08 60.08 0 0 1-30.07-2.35c-21.58-7.25-36.11-24.74-37.48-42.76l5.2 2.69 30.29 5.15 31.12 5.3Z"/><circle class="ascls-2" cx="115.82" cy="153.5" r="17"/><circle class="ascls-3" cx="121.82" cy="151.5" r="17"/><path class="ascls-2" d="M238.73 126.71c12.46 43.15-11.79 93.29-30.26 95.29-44.63 5-76.34-17.79-88.79-60.94s4.1-85.81 37-95.3 69.6 17.81 82.05 60.95Z"/><path d="M238 101.42c-4.7-9.87-16.16-14.25-26.63-17.42-5.66-1.72-11.47-3.36-17.38-3.18A41.18 41.18 0 0 0 178.25 85c-8.66 4-17.47 9.66-23.92 16.72-3.13 3.42-6 7-9.18 10.43q-2.67 2.85-5.09 5.92c-1.23 1.56-2.63 4.75-4.22 5.84 29.47-20.2 66.93-29.16 102.16-22.49Z" style="fill:#ff2609"/><path class="ascls-5" d="M198.4 131.65c-.08.35 9.79 38.85 9.79 38.85h-12.5M209.86 121.44a31.18 31.18 0 0 1 22.85-2.16M154.75 125.14a36.68 36.68 0 0 1 31.23-1"/><path class="ascls-6" d="M296.41 280.68a184.56 184.56 0 0 1-226.48-1l48.66-22.81a46.83 46.83 0 0 0 6.65-3.82c.64-.44 1.28-.9 1.89-1.38a46.35 46.35 0 0 0 12.78-15.09 44.69 44.69 0 0 0 4.64-14.48 28.66 28.66 0 0 0 2.22 1.94 95.14 95.14 0 0 0 19.82 11.26 99 99 0 0 0 10.46 3.7 93.52 93.52 0 0 0 33 3.49c1.54-.12 3.09-.27 4.63-.38l.15 5.08v.33l12.1 4.92Z"/><path d="M263 117.79c-6-30.47-23-57.79-54.6-67.3C161 36.27 101.11 72.13 93.58 121.45c-6.75 44.26 9.54 105.66 44.06 135.45 19.58 16.9 48.87 22.28 72.9 12.8 14-5.5 19-15.85 25.4-28.39 9.83-19.29 19.14-39 24.86-59.89a142.57 142.57 0 0 0 2.2-63.63ZM210.41 218.9c-11.47 4.63-28.46-.46-38.7-6q-2.18-1.19-4.24-2.54c-20.78-13.66-31.66-37.58-38.32-60.7a101.44 101.44 0 0 1-2.52-10.14c.06.32 6.41-2.82 6.88-3.07a50.35 50.35 0 0 0 8.75-5.95c9.87-8.06 15.94-19.15 24.73-28.19 6.42-6.61 13.94-12.47 23-14.77 14.68-3.73 29.39 8.31 36.3 20.39 7.88 13.78 12.42 28.74 11.51 44.65a145.7 145.7 0 0 1-4 27.24c-3.17 12.54-8.45 24.5-17 34a22.7 22.7 0 0 1-4.45 4 11 11 0 0 1-1.94 1.08Z" style="fill:url(#aslinear-gradient-2)"/><path class="ascls-5" d="M168.4 151.66a10.36 10.36 0 0 0 11-10M212.26 139.48a9.07 9.07 0 0 0 3.3 6.77 26.87 26.87 0 0 0 6.68 3.95M161.34 181.74a25.4 25.4 0 0 1 4.57-5.65 24.7 24.7 0 0 1 13.22-6.25M187.06 105.01h23.67M181.29 112.82h29.44"/><path d="M172.41 180.5a1.86 1.86 0 0 1 2.68-.5c2.08 1.46 5.88 4.56 11.28 5.63 7.36 1.47 13.75-1.48 15.27.42.86 1.07-.19 2.38-2.2 4a19.74 19.74 0 0 1-14.86 3.69c-7.08-1.33-12.4-9.53-12.4-12.44a1.68 1.68 0 0 1 .23-.8Z" style="fill:#fff"/><path class="ascls-6" d="M171.5 138.45c6.1-.06 6.28 9.26.18 9.43h-.27c-6.11.07-6.29-9.25-.19-9.42h.28ZM221.73 136.82c5.67-.07 5.84 8.59.17 8.74h-.25c-5.66.06-5.83-8.59-.17-8.75h.25Z"/></svg><svg viewBox="0 0 366.34 366.34" id="avatar_(3)" data-name="Layer 1" xmlns="http://www.w3.org/2000/svg"><defs><linearGradient id="atlinear-gradient" x1="87.83" y1="312.28" x2="245.56" y2="104.06" gradientUnits="userSpaceOnUse"><stop offset="0" stop-color="#16243f"/><stop offset="1" stop-color="#6878b1"/></linearGradient><linearGradient id="atlinear-gradient-2" x1="103.72" y1="136.5" x2="185.85" y2="68.22" xlink:href="#atlinear-gradient"/><linearGradient id="atlinear-gradient-3" x1="69.93" y1="271.9" x2="296.41" y2="271.9" gradientUnits="userSpaceOnUse"><stop offset="0" stop-color="#315676"/><stop offset="1" stop-color="#e1b9e0"/></linearGradient><style>.atcls-2{fill:#e18477}.atcls-3{fill:#a76962}.atcls-4{fill:#00214e}.atcls-6{fill:none;stroke:#00214e;stroke-miterlimit:10}</style></defs><path d="M188.53 287.7c-16.55 1.06-32.6.47-49 .19-18.65 0-40.88 4.86-54.85-11.39-9.66-11.24-8.5-28.29-3.52-42.25 3.51-9.83 8.72-19.88 6.78-30.14-1.47-7.77-6.85-14.22-9.24-21.75-2.33-7.34-1.67-16.32 2.31-23 3.63-6.12 9.47-9.29 10.68-17.05.66-4.26-.52-8.55-1.21-12.81-5.65-34.91 22.61-59.35 50.46-74 17.08-9 37.59-13.12 56-5.54a13.29 13.29 0 0 0 4.32 1.29 21.77 21.77 0 0 0 4.08-.56c22.9-3.38 52.56 37.46 46.24 58.17-1.92 6.27-4.94 12.77-3.24 19.11 2.51 9.34 14.29 14.3 15.75 23.86 1.58 10.31-9.95 19.54-7.68 29.73 1.34 6 7.05 9.92 10.67 14.93a24.17 24.17 0 0 1 4.47 13 23.68 23.68 0 0 1-1.15 8.52c-2.7 8.15-9.86 15.56-8.07 24 2.12 10 15 13.54 14.33 24.92-.37 6.08-5.7 10.79-11.33 13.1a76.62 76.62 0 0 1-12.48 3.54c-3.14.7-5.91.07-9.05.39-8.74.89-17.36 2.26-26.16 2.76-9.64.48-19.41.36-29.11.98Z" style="fill:url(#atlinear-gradient)"/><path class="atcls-2" d="M296.41 282a184.56 184.56 0 0 1-226.48-1l48.66-22.81a47.68 47.68 0 0 0 4.35-2.34l1.12-.7c.4-.25.79-.51 1.18-.78a46.54 46.54 0 0 0 14.67-16.47c4-7.55 5.32-15.89 5.38-24.39 0-5.72-.31-11.44-.37-17.17q-.06-4.76-.1-9.51l2 1 5.2 2.69 30.29 5.15 31.12 5.3.94 32 .47 15.87 11.47 4.67 9 3.64Z"/><path class="atcls-3" d="M214.32 224.69c-2.72 1.68-5.29 2.47-7.54 2.23-14.79-1.59-43.64-13.18-61.8-34.63q0-1.57-.06-3.15-.06-4.75-.1-9.51l2 1 5.2 2.69 30.29 5.15 31.12 5.3Z"/><circle class="atcls-2" cx="119.82" cy="154.58" r="17"/><circle class="atcls-3" cx="125.82" cy="152.58" r="17"/><path class="atcls-2" d="M235.36 129.11C247.1 169.8 222.16 219 206.82 219c-21 0-72-16.77-83.73-57.46S127 80.6 158 71.65s65.61 16.78 77.36 57.46Z"/><path class="atcls-4" d="M169.92 136.18c6.1 0 6.1 9.38 0 9.42h-.28c-6.1 0-6.1-9.37 0-9.42h.28ZM220 134.79c5.67 0 5.67 8.7 0 8.75h-.25c-5.66 0-5.66-8.71 0-8.75h.25Z"/><path d="M198.08 79.8c-.12.27-.24.55-.37.83a67 67 0 0 1-11.44 16.91c-9.25 10.2-20.84 18.16-32.86 24.77a192.39 192.39 0 0 1-21.48 10.54c-10.63 4.23-19.64 6.34-19.93 6.64-.93-11.89-7.43-36.83 24.82-61.25 26-19.67 63.69-18.13 63.69-18.13-.12 7.41.49 12.89-2.43 19.69Z" style="fill:url(#atlinear-gradient-2)"/><path class="atcls-6" d="M198.4 131c-.08.35 8.36 36.41 8.36 36.41h-12.5M209.86 120.8a31.18 31.18 0 0 1 22.85-2.16M154.75 124.5a36.68 36.68 0 0 1 31.23-1"/><path d="M296.41 282a184.56 184.56 0 0 1-226.48-1l48.66-22.81a46.83 46.83 0 0 0 6.65-3.82c.64-.44 1.28-.9 1.89-1.38a46.35 46.35 0 0 0 12.78-15.09 44.69 44.69 0 0 0 4.64-14.48 28.66 28.66 0 0 0 2.22 1.94 95.14 95.14 0 0 0 19.82 11.26 99 99 0 0 0 10.46 3.69 93.52 93.52 0 0 0 33 3.49c1.54-.12 3.09-.27 4.63-.38l.15 5.08v.33l12.1 4.92Z" style="fill:url(#atlinear-gradient-3)"/><rect x="125.22" y="86.33" width="28.06" height="9.73" rx="4.86" transform="rotate(20.94 139.24 91.2)" style="fill:#ff2609"/><rect x="118.57" y="101.17" width="28.06" height="9.73" rx="4.86" transform="rotate(20.94 132.607 106.024)" style="fill:#f2d4cf"/><path d="M172.41 174.65a1.85 1.85 0 0 1 2.68-.51c2.08 1.47 5.88 4.56 11.28 5.64 7.36 1.46 13.75-1.48 15.27.42.86 1.07-.19 2.37-2.2 4.05a19.74 19.74 0 0 1-14.86 3.68c-7.08-1.32-12.4-9.53-12.4-12.43a1.66 1.66 0 0 1 .23-.85Z" style="fill:#fff"/></svg><svg viewBox="0 0 366.34 366.34" id="avatar_(4)" data-name="Layer 1" xmlns="http://www.w3.org/2000/svg"><defs><style>.aucls-2{fill:#f2d4cf}.aucls-3{fill:#845161}.aucls-4{fill:#69303a}.aucls-5{fill:#00214e}.aucls-6,.aucls-7{fill:none;stroke-miterlimit:10}.aucls-6{stroke:#00214e}.aucls-7{stroke:#f2d4cf}</style></defs><path d="M192.58 81.19c-1.37 5.88-9.21 8.78-12.52 13.39-3.43 4.79-3.73 13.1-8.66 16.16s-12.51-.34-18.32.62c-5.6.93-11.67 6.68-17.54 5.31s-8.78-9.21-13.4-12.52c-4.78-3.43-13.1-3.74-16.16-8.66s.34-12.51-.62-18.32c-.92-5.61-6.67-11.67-5.3-17.55s9.21-8.78 12.52-13.39c3.43-4.79 3.73-13.1 8.66-16.16s12.51.34 18.32-.62c5.6-.93 11.67-6.67 17.55-5.3s8.77 9.2 13.39 12.51c4.78 3.43 13.1 3.74 16.16 8.66s-.34 12.52.62 18.33c.93 5.6 6.72 11.67 5.3 17.54Z" style="fill:#daaea8"/><path class="aucls-2" d="M210.4 216c-2.52 3-4.7 6.28-7.27 9.23-13.62 15.66-43.29 5.37-58-4-10.83-6.85-19-17.18-26-27.94-8.6-13.27-15.79-27.7-18.91-43.2C85.93 79.1 177 48.22 228.07 83.07c19 13 36.17 42.16 32 65.53-2.13 11.86-10.56 22.53-9.66 34.54 1 12.94 12.69 25.27 7.8 37.29-1.92 4.7-6.06 8.06-9.41 11.87-4.53 5.15-7.84 11.59-8.23 18.43s2.45 14 8.09 17.92c-13.93-1.86-22.51-18.54-18.91-32.12 1.18-4.46 3.36-8.62 4.31-13.14s.39-9.77-3.06-12.83c-4.43-3.93-11.65-2.44-16.3 1.22a30.41 30.41 0 0 0-4.3 4.22Z"/><path class="aucls-3" d="M296.41 304.09a184.58 184.58 0 0 1-226.48-1l48.66-22.81a47.6 47.6 0 0 0 4.35-2.33c.38-.23.75-.46 1.12-.71s.79-.5 1.18-.77A46.57 46.57 0 0 0 139.91 260c4-7.54 5.32-15.88 5.38-24.38 0-5.73-.31-11.44-.37-17.18q-.06-4.75-.1-9.51l.19.1 1.79.93 5.2 2.68 30.29 5.15 31.12 5.31.72 24.45.22 7.51.47 15.87 11.47 4.67 9 3.65Z"/><path class="aucls-4" d="M214.13 247.52a12 12 0 0 1-7.23 2c-14.79-1.59-43.64-13.18-61.8-34.63q0-1.58-.06-3.15v-2.79l1.79.93 5.2 2.68 30.29 5.15 31.12 5.31Z"/><path class="aucls-5" d="M296.41 304.09a184.56 184.56 0 0 1-226.48-1l48.66-22.81a47.68 47.68 0 0 0 4.35-2.34c23.68 17.41 56.64 28.75 85.06 16 8.06-3.62 15.33-10.05 18.29-18.31l9 3.64Z"/><circle class="aucls-3" cx="119.82" cy="176.91" r="17"/><circle class="aucls-4" cx="125.82" cy="174.91" r="17"/><path class="aucls-3" d="M235.36 151.16C247.1 191.85 222.15 241 206.82 241c-21 0-72-16.77-83.73-57.46S127 102.65 158 93.7s65.61 16.78 77.36 57.46Z"/><path class="aucls-2" d="M200.54 101.22c-2.4 4.74-7.4 8.86-10.37 13.71-3.89 6.35-6.83 13.25-10.13 19.92-2.45 5-5.19 9.94-9.33 13.61s-10 5.84-15.31 4.31c-3.64-1.05-6.6-3.65-9.85-5.58s-7.43-3.22-10.77-1.42c-4.92 2.64-4.85 9.81-8.37 14.14-8.08 9.93-22.89-3.45-24.67-12.12-2.61-12.67 7.79-23.26 15.35-32 6.3-7.3 14.83-18.44 24.73-20.87.17 0 58-23 58-23 .52 7.73 3.64 19.16 1.77 26.56a13 13 0 0 1-1.05 2.74Z"/><path class="aucls-6" d="M198.4 153.06c-.06.24 5.54 15.88 8.93 25.32a5.26 5.26 0 0 1-4.94 7h-3.64"/><path class="aucls-7" d="M209.86 142.85a31.18 31.18 0 0 1 22.85-2.16M154.75 146.55a36.7 36.7 0 0 1 31.22-1"/><path class="aucls-5" d="M172.92 157.63c6.1 0 6.1 9.37 0 9.42h-.28c-6.1-.05-6.1-9.38 0-9.42h.28ZM223.18 154.54c5.66.05 5.66 8.7 0 8.75h-.26c-5.66 0-5.66-8.7 0-8.75h.26Z"/><path class="aucls-6" d="M191.3 179.65a3.37 3.37 0 0 0-3 3.15 2.65 2.65 0 0 0 3.24 2.5"/><path d="M173.65 194.77a1.86 1.86 0 0 1 2.68-.5c2.07 1.46 5.88 4.56 11.28 5.63 7.36 1.47 13.74-1.48 15.27.42.86 1.07-.19 2.37-2.2 4.05a19.75 19.75 0 0 1-14.86 3.69c-7.08-1.33-12.4-9.53-12.4-12.44a1.68 1.68 0 0 1 .23-.85Z" style="fill:#fff"/></svg><svg viewBox="0 0 366.34 366.34" id="avatar_(5)" data-name="Layer 1" xmlns="http://www.w3.org/2000/svg"><defs><linearGradient id="avlinear-gradient" x1="-433.04" y1="-50.16" x2="-338.04" y2="-50.16" gradientTransform="rotate(13.12 -642.803 2319.998)" gradientUnits="userSpaceOnUse"><stop offset="0" stop-color="#16243f"/><stop offset="1" stop-color="#6878b1"/></linearGradient><linearGradient id="avlinear-gradient-2" x1="98.14" y1="150.85" x2="259.22" y2="150.85" xlink:href="#avlinear-gradient"/><linearGradient id="avlinear-gradient-3" x1="109.43" y1="98.84" x2="208.43" y2="140.11" xlink:href="#avlinear-gradient"/><linearGradient id="avlinear-gradient-4" x1="69.93" y1="294.27" x2="296.41" y2="294.27" xlink:href="#avlinear-gradient"/><style>.avcls-3{fill:#845161}.avcls-4{fill:#69303a}.avcls-5,.avcls-6{fill:none;stroke-miterlimit:10}.avcls-5{stroke:#00214e}.avcls-6{stroke:#fff}.avcls-10{fill:#00214e}</style></defs><path d="M192 80.87c-1.37 5.87-9.2 8.78-12.51 13.39-3.43 4.79-3.74 13.1-8.66 16.16s-12.51-.34-18.32.62c-5.61.93-11.67 6.67-17.55 5.3s-8.78-9.2-13.39-12.51c-4.79-3.43-13.1-3.74-16.16-8.66s.34-12.52-.62-18.33c-.93-5.6-6.67-11.67-5.3-17.54s9.2-8.78 12.51-13.39c3.43-4.79 3.74-13.1 8.66-16.16s12.51.34 18.32-.62c5.61-.93 11.67-6.68 17.55-5.31s8.78 9.21 13.39 12.52c4.79 3.43 13.1 3.74 16.16 8.66s-.34 12.51.62 18.32c.94 5.61 6.68 11.68 5.3 17.55Z" style="fill:url(#avlinear-gradient)"/><path d="M209.68 215.47q-.72.6-1.41 1.29c-3.49 3.52-5 8.34-9.26 11.43-15.53 11.25-40.16 1.82-54.49-7.24-10.84-6.85-19-17.19-26-27.94-8.6-13.27-15.79-27.7-18.9-43.21-14.27-71 76.78-101.9 127.87-67.05 12.92 8.81 23 22.71 28.46 37.27 6.89 18.33 1.63 29.36-4.77 46.77a129.8 129.8 0 0 1-7.63 17.92A66.37 66.37 0 0 1 220.14 209c-3.7 2.28-7.27 3.78-10.46 6.47Z" style="fill:url(#avlinear-gradient-2)"/><path class="avcls-3" d="M296.41 304.41a184.56 184.56 0 0 1-226.48-1l48.66-22.81a47.68 47.68 0 0 0 4.35-2.34l1.12-.7c.4-.25.79-.51 1.18-.78a46.54 46.54 0 0 0 14.67-16.47c4-7.55 5.32-15.89 5.38-24.39 0-5.72-.31-11.44-.37-17.17q-.06-4.76-.1-9.51l2 1 5.2 2.69 30.29 5.15 31.12 5.3.94 32 .47 15.87 11.47 4.67 9 3.64Z"/><path class="avcls-4" d="M214.35 255.36a60.08 60.08 0 0 1-30.07-2.36c-21.58-7.25-36.11-24.74-37.48-42.76l5.2 2.69 30.29 5.15 31.12 5.3Z"/><circle class="avcls-3" cx="115.82" cy="177.23" r="17"/><circle class="avcls-4" cx="121.82" cy="175.23" r="17"/><path class="avcls-3" d="M238.73 150.45c12.46 43.14-11.79 93.25-30.26 95.3-44.63 5-76.34-17.79-88.79-60.93s4.1-85.82 37-95.31 69.6 17.79 82.05 60.94Z"/><path class="avcls-5" d="M173.9 203.21a29.82 29.82 0 0 0 18.54 9.7M212.26 163.21a9.07 9.07 0 0 0 3.3 6.78 27.18 27.18 0 0 0 6.68 3.95M200 161.06c-.06.24 5.54 15.88 8.93 25.32a5.25 5.25 0 0 1-5 7h-3.63"/><ellipse class="avcls-6" cx="170.14" cy="165.32" rx="19" ry="11.84"/><ellipse class="avcls-6" cx="224.94" cy="162.77" rx="19" ry="11.84"/><path class="avcls-6" d="m189.14 165.32 16.94-1.29"/><path d="M198 101.79c-2.4 4.75-7.4 8.86-10.37 13.71-3.89 6.36-6.83 13.26-10.13 19.92-2.45 5-5.18 9.94-9.33 13.61s-10 5.85-15.31 4.32c-3.64-1-6.6-3.65-9.85-5.59s-7.43-3.21-10.77-1.42c-4.92 2.64-4.85 9.82-8.37 14.15-8.08 9.93-22.88-3.45-24.67-12.13-2.61-12.67 7.79-23.26 15.35-32 6.3-7.29 14.83-18.43 24.73-20.87.17 0 58-23 58-23 .52 7.73 3.64 19.16 1.77 26.56a12.45 12.45 0 0 1-1.05 2.74Z" style="fill:url(#avlinear-gradient-3)"/><path class="avcls-5" d="M187.74 187.11a3.15 3.15 0 0 0 2.31 5.78M209.86 145.17a31.13 31.13 0 0 1 22.85-2.17M154.75 148.87a36.75 36.75 0 0 1 31.23-1"/><path d="M296.41 304.41a184.56 184.56 0 0 1-226.48-1l48.66-22.81a46.83 46.83 0 0 0 6.65-3.82c.64-.44 1.28-.9 1.89-1.38a46.35 46.35 0 0 0 12.78-15.09 44.69 44.69 0 0 0 4.64-14.48 28.66 28.66 0 0 0 2.22 1.94A95.14 95.14 0 0 0 166.59 259a99 99 0 0 0 10.46 3.69 93.52 93.52 0 0 0 33 3.49c1.54-.12 3.09-.27 4.63-.38l.15 5.08v.33l12.1 4.92Z" style="fill:url(#avlinear-gradient-4)"/><path class="avcls-5" d="M168.4 175.4a10.36 10.36 0 0 0 11-10M161.34 205.47a25.35 25.35 0 0 1 4.57-5.64 24.71 24.71 0 0 1 13.22-6.26M187.06 125.99h23.67M181.29 133.81h29.44"/><circle cx="197.05" cy="145.9" r="4.02" style="fill:#ff2609"/><path class="avcls-10" d="M169.71 160.54c6.1-.07 6.28 9.25.18 9.42h-.27c-6.1.07-6.28-9.25-.18-9.42h.27ZM220 158.9c5.66-.07 5.83 8.59.17 8.74h-.25c-5.67.06-5.84-8.59-.17-8.75h.25Z"/></svg><svg viewBox="0 0 366.34 366.34" id="avatar_(6)" data-name="Layer 1" xmlns="http://www.w3.org/2000/svg"><defs><style>.awcls-1{fill:#00214e}.awcls-2{fill:#e18477}.awcls-3{fill:#a76962}.awcls-5{fill:none;stroke:#00214e;stroke-miterlimit:10}</style></defs><path class="awcls-1" d="M218.31 54.07c-12-4-24.85-7.28-37.54-5.85a115 115 0 0 0-55.55 22C93.33 94 85.13 137 71.81 172.53c-5 13.33-10 26.79-12.17 40.87-6.32 41.77 21.57 56.83 57.72 67.09 45.55 12.93 95.4 9.07 139.81-6.53 37.83-13.29 53-45.33 45-83.6-4-18.88-11.54-36.8-19.14-54.55-14.46-33.68-28.13-69.39-64.72-81.74Z"/><path class="awcls-2" d="M307.6 280.15a184.58 184.58 0 0 1-226.48-1l48.66-22.81a47.68 47.68 0 0 0 4.35-2.34l1.12-.7c.4-.25.79-.51 1.18-.78A46.54 46.54 0 0 0 151.1 236c4-7.55 5.32-15.88 5.38-24.38 0-5.73-.31-11.44-.37-17.18q-.06-4.75-.1-9.51l2 1 5.2 2.69 30.29 5.15 31.12 5.3.94 32L226 247l11.47 4.67 9 3.64Z"/><path class="awcls-3" d="M225.51 227.76c-2.72 1.68-5.29 2.47-7.54 2.23-14.79-1.59-43.64-13.18-61.8-34.63q0-1.58-.06-3.15-.06-4.76-.1-9.51l2 1 5.2 2.69 30.29 5.15 31.12 5.3Z"/><path d="M307.6 280.15a184.58 184.58 0 0 1-226.48-1l48.66-22.81q2.25-1.06 4.35-2.33c23.68 17.41 56.64 28.74 85.06 15.95 8.06-3.62 15.33-10 18.29-18.31l9 3.64Z" style="fill:#ff2609"/><circle class="awcls-2" cx="130.67" cy="152.96" r="17"/><circle class="awcls-3" cx="137.67" cy="150.96" r="17"/><path class="awcls-2" d="M217.67 217.09c-20.64 3.86-72-16.78-83.74-57.46a98.14 98.14 0 0 1-3.9-26.07c0-1.73 0-3.45.08-5.15 1.28-28.34 15.78-52 38.69-58.65 1.32-.38 2.65-.7 4-1a47.86 47.86 0 0 1 24 1.68 66.87 66.87 0 0 1 26.32 16.67 84.09 84.09 0 0 1 8.52 10 96.4 96.4 0 0 1 14.54 30.05c11.82 40.74-13.1 87.06-28.51 89.93Z"/><path class="awcls-5" d="M213.32 128.89a58 58 0 0 0 2 11.49c1 3.31 2.52 5.36 4.52 8.22a17.7 17.7 0 0 1 1.79 3c2.65 5.94-.86 12.53-7.54 12.53H210M195.34 156.45a3.4 3.4 0 0 0 2.11 6.38M218.05 116.61a31.19 31.19 0 0 1 22.85-2.16M165.58 119.5a36.76 36.76 0 0 1 31.23-1"/><path class="awcls-1" d="M210.21 64.69c-9.92-1.93-21.82-1.59-31.55-1.47-5.31.06-10.69.4-15.75 2-14 4.51-23.11 18-28.79 31.6-1.45 3.47-16.44 38-16.11 38.07 9.6 3.12 19.88-1.22 28.89-5.75 26.74-13.47 55.12-35.12 66.62-63.74-1.07-.24-2.18-.49-3.31-.71Z"/><path d="M185 172.55a1.86 1.86 0 0 1 2.68-.5c2.08 1.46 5.88 4.56 11.28 5.64 7.36 1.46 13.75-1.48 15.27.41.86 1.07-.19 2.38-2.2 4.05a19.69 19.69 0 0 1-14.86 3.69c-7.08-1.33-12.4-9.53-12.4-12.43a1.72 1.72 0 0 1 .23-.86Z" style="fill:#fff"/><path class="awcls-1" d="M179.41 130.89c6.1.05 6.1 9.37 0 9.42h-.27c-6.1-.05-6.1-9.37 0-9.42h.27ZM229.67 130.23c5.67 0 5.67 8.7 0 8.74h-.25c-5.67 0-5.67-8.7 0-8.74h.25Z"/></svg><svg viewBox="0 0 366.34 366.34" id="avatar_(7)" data-name="Layer 1" xmlns="http://www.w3.org/2000/svg"><defs><linearGradient id="axlinear-gradient" x1="142.7" y1="64.13" x2="204.05" y2="64.13" gradientUnits="userSpaceOnUse"><stop offset="0" stop-color="#16243f"/><stop offset="1" stop-color="#6878b1"/></linearGradient><linearGradient id="axlinear-gradient-2" x1="110.02" y1="244.18" x2="233.57" y2="117.8" xlink:href="#axlinear-gradient"/><linearGradient id="axlinear-gradient-3" x1="119.33" y1="162.85" x2="169.56" y2="104.52" xlink:href="#axlinear-gradient"/><style>.axcls-3{fill:#f2a196}.axcls-4{fill:#e88870}.axcls-5{fill:#00214e}.axcls-6,.axcls-8{fill:none;stroke-miterlimit:10}.axcls-6{stroke:#fff}.axcls-8{stroke:#00214e}</style></defs><circle cx="173.37" cy="64.13" r="30.67" style="fill:url(#axlinear-gradient)"/><path d="M199.87 230.57a324.47 324.47 0 0 1-47.8-4.38c-31.48-5.26-62.3-15.31-90.26-30.8-1.66-.93-3.32-1.87-5-2.83 24.79-23.53 43.19-52 58.74-82.2 11.2-21.79 17-36.16 41.19-45.33 42.06-15.93 98.88-.44 110.84 46.88 5.05 20 5.24 40.91 2.37 61.26-2.77 19.68-10.06 57.58-10.06 57.58s-52.17-.04-60.02-.18Z" style="fill:url(#axlinear-gradient-2)"/><path class="axcls-3" d="M309.5 294.57a184.56 184.56 0 0 1-226.48-1l48.66-22.81a47.68 47.68 0 0 0 4.35-2.34l1.12-.7c.4-.25.79-.51 1.18-.78A46.54 46.54 0 0 0 153 250.46c4-7.55 5.32-15.89 5.38-24.39 0-4.67-.19-9.34-.31-14q0-1.58-.06-3.15-.06-4.76-.1-9.51h.07l1.91 1 5.2 2.69 30.29 5.15 31.12 5.3.71 24 .2 6.88v1.07l.47 15.87 11.47 4.67 9 3.64Z"/><path class="axcls-4" d="M227.21 237.57a12.12 12.12 0 0 1-7.34 2.11c-14.79-1.59-43.64-13.18-61.8-34.63q0-1.58-.06-3.15v-2.47l1.91 1 5.2 2.69 30.29 5.15 31.12 5.3Z"/><circle class="axcls-3" cx="132.9" cy="167.39" r="17"/><circle class="axcls-4" cx="138.9" cy="165.39" r="17"/><path class="axcls-3" d="M248.44 141.65c11.75 40.68-13.2 89.87-28.54 89.87-21 0-72-16.78-83.73-57.46S140 93.14 171 84.19s65.7 16.81 77.44 57.46Z"/><path class="axcls-5" d="M185.28 150.1c6.1.05 6.1 9.37 0 9.42H185c-6.1-.05-6.1-9.37 0-9.42h.27ZM235.54 146.26c5.67.05 5.67 8.7 0 8.75h-.25c-5.66 0-5.66-8.7 0-8.75h.25Z"/><circle class="axcls-6" cx="185.27" cy="154.89" r="19"/><circle class="axcls-6" cx="238.4" cy="151.89" r="19"/><path d="M209.74 87.56c-4.31 18.7-13.7 34.58-30.86 46.15-18.52 12.82-38.07 19-59.4 23.25.54-13.11-.9-31.55 5.86-43.24a79.48 79.48 0 0 1 32.31-30.36c14.81-7.65 37.72-15.15 54.36-9.85a113.76 113.76 0 0 1-2.27 14.05Z" style="fill:url(#axlinear-gradient-3)"/><path class="axcls-8" d="M211.48 143.55c-.08.34 7.92 32.34 7.92 32.34h-12.5M222.94 133.34a31.08 31.08 0 0 1 22.85-2.16M167.83 137a36.75 36.75 0 0 1 31.23-1"/><path class="axcls-6" d="m204.27 154.89 15.13-1.29"/><path d="M309.49 294.57a184.56 184.56 0 0 1-226.48-1l48.66-22.81a46.83 46.83 0 0 0 6.65-3.82c.64-.44 1.28-.9 1.89-1.38a46.35 46.35 0 0 0 12.79-15.1 44.69 44.69 0 0 0 4.63-14.46 28.66 28.66 0 0 0 2.22 1.94 95.14 95.14 0 0 0 19.82 11.26 99 99 0 0 0 10.46 3.69 93.52 93.52 0 0 0 33 3.49c1.54-.12 3.09-.27 4.63-.38l.15 5.08v.33l12.1 4.92Z" style="fill:#845161"/><path d="M185.49 187.18a1.87 1.87 0 0 1 2.69-.5c2.07 1.46 5.87 4.56 11.27 5.63 7.36 1.47 13.75-1.48 15.27.42.86 1.07-.19 2.38-2.2 4.05a19.72 19.72 0 0 1-14.85 3.69c-7.09-1.33-12.4-9.53-12.4-12.44a1.68 1.68 0 0 1 .22-.85Z" style="fill:#fff"/></svg><svg viewBox="0 0 366.34 366.34" id="avatar_(8)" data-name="Layer 1" xmlns="http://www.w3.org/2000/svg"><defs><linearGradient id="aylinear-gradient" x1="69.93" y1="295.83" x2="296.41" y2="295.83" gradientUnits="userSpaceOnUse"><stop offset="0" stop-color="#16243f"/><stop offset="1" stop-color="#6878b1"/></linearGradient><style>.aycls-1{fill:#f2a196}.aycls-2{fill:#e88870}.aycls-6{fill:#00214e}.aycls-7{fill:none;stroke:#00214e;stroke-miterlimit:10}</style></defs><path class="aycls-1" d="M296.41 291.18a184.56 184.56 0 0 1-226.48-1l48.66-22.81a46.83 46.83 0 0 0 6.65-3.82c.64-.44 1.28-.9 1.89-1.38a46.35 46.35 0 0 0 12.78-15.09 44.69 44.69 0 0 0 4.64-14.48 67.91 67.91 0 0 0 .74-9.91c0-3.46-.09-6.92-.21-10.38-.07-2.26-.13-4.53-.16-6.79q-.06-4.75-.1-9.51l2 1 5.2 2.69 2.41.41 27.88 4.74 31.12 5.3.94 32 .31 10.46.15 5.08v.31l1 .42 11.07 4.5Z"/><path class="aycls-2" d="M214.82 258a16 16 0 0 1-10.07-1.56l-59.67-48.77c-.07-2.26-.13.1-.16-2.16q-.06-4.75-.1-9.51l2 1 5.2 2.69 2.41.41 27.88 4.74 31.12 5.3.94 32 .31 10.46.15 5.08v.32Z"/><path d="M296.41 291.18a184.56 184.56 0 0 1-226.48-1l48.66-22.81a46.83 46.83 0 0 0 6.65-3.82c.64-.44 1.28-.9 1.89-1.38 23.55 16.76 55.69 27.33 83.49 14.82 6.62-3 12.7-7.84 16.3-14.06Z" style="fill:url(#aylinear-gradient)"/><path d="M278.51 90.9c-.09.59-.2 1.17-.33 1.75a32.08 32.08 0 0 1-3.31 8.49l-.08.14c-.57 1-1.18 2-1.84 3a74.32 74.32 0 0 1-5.72 7.35L266 113c-.83.93-1.67 1.84-2.51 2.74 4.45-1 8.76 3.15 9.55 7.63s-1 9-3.21 13c-3.87 7.08-9.45 11.79-14.36 17.94-3.68 4.58-5.72 10-9.73 14.38l-.3.33c-10.59 11.12-27.31 13.72-41.23 18.47-5 1.72-59.22 17.12-59.22 20.48 0-.73-5.31-6-12-12.41-24-22.79-31.89-58-17.61-88.2 15.35-32.5 50.21-55.69 83.41-66.83 10.38-3.48 22.16-5.82 32-1s14.74 19.77 6.58 27.07a26.16 26.16 0 0 1 17.93-5.21 24.46 24.46 0 0 1 15.72 7.07 27 27 0 0 1 6.95 12.08 24.94 24.94 0 0 1 .54 10.36Z" style="fill:#845161"/><path d="M278.51 90.9c-.09.59-.2 1.17-.33 1.75-.09.17-.18.35-.27.55-1.13 2.58-1.65 5.36-3 7.94l-.08.14c-.57 1-1.18 2-1.84 3a67.09 67.09 0 0 1-5.72 7.35L266 113c-.83.93-1.67 1.84-2.51 2.74 4.45-1 8.76 3.15 9.55 7.63s-1 9-3.21 13c-3.87 7.08-9.45 11.79-14.36 17.94-3.68 4.58-5.72 10-9.73 14.38a37.7 37.7 0 0 1-8.54-19.47c-1.64-13.26-.64-27.71-1.09-41.13-.28-8.44-3-10 2.06-16.83a74.3 74.3 0 0 1 14-13.29c4.08-2.69 9.33-3.11 14.2-2.42a23.5 23.5 0 0 1 11.58 5 24.94 24.94 0 0 1 .56 10.35Z" style="fill:#69303a"/><circle class="aycls-1" cx="134.98" cy="168" r="17"/><circle class="aycls-2" cx="140.37" cy="168" r="15.22"/><path class="aycls-1" d="m140.6 152 4.4 57 66.44 38.82A19.77 19.77 0 0 0 236.1 238c9.56-19.58 24.9-50.5 22.88-62-3-17-11-23-11-23q1.67-10 3.32-19.94c1.26-7.51 2.87-15.35 1-22.9-2.13-8.66-8.67-12.35-14.05-18.82-14.16 18.24-37.44 28.55-57.77 39C170 135.78 140.6 152 140.6 152Z"/><path class="aycls-6" d="M189.72 149.8c6.1 0 6.1 9.38 0 9.43h-.28c-6.1 0-6.1-9.38 0-9.43h.28ZM239.84 148.41c5.67.05 5.67 8.7 0 8.75h-.25c-5.66 0-5.66-8.7 0-8.75h.25Z"/><path class="aycls-7" d="M215.13 147.09c-.08.35 13.36 36.13 13.36 36.13l-17.94.87M172.65 140.17a80.57 80.57 0 0 1 28.13-.79M231.7 140.28a55.34 55.34 0 0 1 17.45-1.21"/><path d="M192.17 194.1a1.85 1.85 0 0 1 2.68-.5c2.08 1.46 5.88 4.56 11.28 5.63 7.36 1.47 13.74-1.48 15.27.42.86 1.07-.19 2.37-2.2 4a19.74 19.74 0 0 1-14.86 3.69c-7.08-1.33-12.4-9.53-12.4-12.44a1.66 1.66 0 0 1 .23-.8Z" style="fill:#fff"/></svg><svg viewBox="0 0 366.34 366.34" id="avatar_(9)" data-name="Layer 1" xmlns="http://www.w3.org/2000/svg"><defs><style>.azcls-2{fill:#845161}.azcls-3{fill:#69303a}.azcls-4{fill:#00214e}.azcls-5,.azcls-6{fill:none;stroke-miterlimit:10}.azcls-5{stroke:#00214e}.azcls-6{stroke:#daaea8}</style></defs><path d="M118.72 166.8c-1.57-3.12-3.09-6.28-4.55-9.45-2.86-6.2-5.54-12.55-6.74-19.27-3.89-21.68 7.32-45.32 23.41-59.22 22.9-19.77 55.34-27.24 80.57-44.78a34.59 34.59 0 0 1-12.9 21.76c11.81-9.1 47 5.89 58 11.51a116.3 116.3 0 0 1 44.94 40.08 73.87 73.87 0 0 0-37.51-4.8c9.88 9.57 20.16 19.78 23.9 33-17.73-12.78-46.04-6.63-56.84 12.42-6.93 12.2-6.83 27.06-11 40.47-4.4 14.2-16.27 23.22-30.23 27-10.52 2.88-31.22 4.18-40.75-2-2.89-1.87-5-4.73-6.94-7.55a318.87 318.87 0 0 1-23.36-39.17Z" style="fill:#daaea8"/><circle class="azcls-2" cx="129.75" cy="170.77" r="17"/><circle class="azcls-3" cx="135.61" cy="169.77" r="16"/><path class="azcls-2" d="M291.34 294a184.56 184.56 0 0 1-226.48-1l48.66-22.81a46.83 46.83 0 0 0 6.65-3.82c.64-.44 1.28-.9 1.89-1.38a46.35 46.35 0 0 0 12.78-15.09c4-7.55 5.32-15.89 5.38-24.39 0-2.81-.06-5.63-.14-8.45s-.2-5.81-.23-8.72q-.06-4.75-.1-9.51l2 1 5.2 2.69 2.41.41 27.88 4.74 31.12 5.3.94 32 .39 13.29.07 2.25v.33l12.1 4.92Z"/><path class="azcls-3" d="m209.67 258.19-1.54.16a51.49 51.49 0 0 1-40.67-14.65l-27.58-32.51c-.09-2.9 0 0 0-2.91q-.06-4.75-.1-9.51l2 1 5.2 2.69 2.41.41 27.88 4.74 31.12 5.3.94 32Z"/><path class="azcls-2" d="M138.41 139.06a17.1 17.1 0 0 0-5.64 10.69c-2.09 19.53 5.14 42.58 7.15 62.14l36.42 26.86a51.48 51.48 0 0 0 42.29 8.94c5.87-1.39 9.59-2.29 12.24-7 5.12-9 17.69-39.79 18.51-61.51.23-6.17.08-15.57-3.72-20.82-1.85-2.55-2.8-2.61-2.13-6.21.69-3.76 1.68-7.48 2.51-11.21a52 52 0 0 0 1-16.45c-.55-5-.53-9.44-1.06-14.53-.26-2.47-1.36-13.28-1.36-13.28-6.35 9.56-17.81 14.58-28.41 17.88-14.42 4.48-29.43 6.67-44.05 10.43-9.69 2.53-25.36 6.13-33.75 14.07Z"/><path class="azcls-4" d="M181.62 154.13c6.1.05 6.1 9.38 0 9.43h-.27c-6.11-.05-6.11-9.38 0-9.43h.27ZM234.31 151.28c5.67 0 5.67 8.7 0 8.75h-.25c-5.66-.05-5.66-8.71 0-8.75h.25Z"/><path class="azcls-5" d="M186.09 199.08a29.76 29.76 0 0 0 18.54 9.69"/><path class="azcls-6" d="M167.42 142.94a80.34 80.34 0 0 1 28.13-.8M226.47 143a55.64 55.64 0 0 1 17.45-1.21"/><path d="M291.34 294a184.56 184.56 0 0 1-226.48-1l48.66-22.81a46.83 46.83 0 0 0 6.65-3.82c.64-.44 1.28-.9 1.89-1.38 23.55 16.76 55.69 27.33 83.49 14.82 6.62-3 12.7-7.84 16.3-14.06Z" style="fill:#de8276"/><path class="azcls-5" d="M198.42 182.25a3.4 3.4 0 0 0 2.11 6.38M213.83 153.21c2.49 9.55 4.56 19 6.93 28.57a7 7 0 0 1 .3 2.72c-.43 2.75-3.7 3.88-6.42 4.47"/></svg><svg viewBox="0 0 24 24" fill="#e90000" id="heart" xmlns="http://www.w3.org/2000/svg"><path fill-rule="evenodd" clip-rule="evenodd" d="M7.781 4C4.537 4 2 6.82 2 10.156c0 1.735.278 3.164 1.313 4.667.988 1.435 2.63 2.883 5.178 4.793L12 22l3.508-2.384c2.549-1.91 4.192-3.358 5.18-4.793C21.721 13.32 22 11.891 22 10.156 22 6.82 19.463 4 16.219 4 14.59 4 13.182 4.663 12 5.863 10.818 4.663 9.41 4 7.781 4Zm0 2C5.776 6 4 7.785 4 10.156c0 .549.031 1.031.109 1.476.13.746.39 1.386.851 2.057.785 1.14 2.189 2.421 4.732 4.327L12 19.749l2.308-1.733c2.543-1.906 3.947-3.186 4.732-4.327.738-1.071.96-2.065.96-3.533C20 7.786 18.224 6 16.219 6c-1.236 0-2.369.586-3.416 1.998a1 1 0 0 1-1.606 0C10.15 6.586 9.017 6 7.78 6Z"/></svg><svg viewBox="0 0 24 24" fill="none" id="send" xmlns="http://www.w3.org/2000/svg"><path d="M20 4 3 9.314l7.5 4.186M20 4l-5.5 17-4-7.5M20 4l-9.5 9.5" stroke="#000" stroke-width="2" stroke-linecap="round" stroke-linejoin="round"/></svg></svg>