<?xml version="1.0" encoding="utf-8"?><svg viewBox="0 0 100 100" xmlns="http://www.w3.org/2000/svg" xmlns:xlink="http://www.w3.org/1999/xlink"><style>:root>svg{display:none}:root>svg:target{display:block}</style><svg viewBox="0 0 24 24" fill="#e90000" id="heart" xmlns="http://www.w3.org/2000/svg"><path fill-rule="evenodd" clip-rule="evenodd" d="M7.781 4C4.537 4 2 6.82 2 10.156c0 1.735.278 3.164 1.313 4.667.988 1.435 2.63 2.883 5.178 4.793L12 22l3.508-2.384c2.549-1.91 4.192-3.358 5.18-4.793C21.721 13.32 22 11.891 22 10.156 22 6.82 19.463 4 16.219 4 14.59 4 13.182 4.663 12 5.863 10.818 4.663 9.41 4 7.781 4Zm0 2C5.776 6 4 7.785 4 10.156c0 .549.031 1.031.109 1.476.13.746.39 1.386.851 2.057.785 1.14 2.189 2.421 4.732 4.327L12 19.749l2.308-1.733c2.543-1.906 3.947-3.186 4.732-4.327.738-1.071.96-2.065.96-3.533C20 7.786 18.224 6 16.219 6c-1.236 0-2.369.586-3.416 1.998a1 1 0 0 1-1.606 0C10.15 6.586 9.017 6 7.78 6Z"/></svg><svg viewBox="0 0 24 24" fill="none" id="send" xmlns="http://www.w3.org/2000/svg"><path d="M20 4 3 9.314l7.5 4.186M20 4l-5.5 17-4-7.5M20 4l-9.5 9.5" stroke="#000" stroke-width="2" stroke-linecap="round" stroke-linejoin="round"/></svg></svg>